{
  "source": "C:\\Users\\Peter\\Desktop\\stuff\\MIUN\\quantitative_research\\video_compression\\videos\\BVI-HD\\BVI-HD_CDVL_videos\\ORIG\\ParkPlay_1920x1080_50fps.mp4",
  "output": "C:\\Users\\Peter\\Desktop\\stuff\\MIUN\\quantitative_research\\video_compression\\compressed_videos\\BVI-HD\\hevc\\1\\ParkPlay_1920x1080_50fps_hevc.mp4",
  "codec": "hevc",
  "ok": "Input #0, mov,mp4,m4a,3gp,3g2,mj2, from 'C:\\Users\\Peter\\Desktop\\stuff\\MIUN\\quantitative_research\\video_compression\\videos\\BVI-HD\\BVI-HD_CDVL_videos\\ORIG\\ParkPlay_1920x1080_50fps.mp4':\n  Metadata:\n    major_brand     : isom\n    minor_version   : 512\n    compatible_brands: isomiso2avc1mp41\n    encoder         : Lavf54.28.101\n  Duration: 00:00:05.00, start: 0.000000, bitrate: 620563 kb/s\n  Stream #0:0[0x1](und): Video: h264 (High 4:4:4 Predictive) (avc1 / 0x31637661), yuv420p(progressive), 1920x1080, 620558 kb/s, 50 fps, 50 tbr, 50 tbn (default)\n    Metadata:\n      handler_name    : VideoHandler\n      vendor_id       : [0][0][0][0]\n[out#0/mp4 @ 000001c142d07d80] Codec AVOption b:a (set bitrate (in bits/s)) has not been used for any stream. The most likely reason is either wrong type (e.g. a video option with no video streams) or that it is a private option of some decoder which was not actually used for any stream.\nStream mapping:\n  Stream #0:0 -> #0:0 (h264 (native) -> hevc (libx265))\nPress [q] to stop, [?] for help\n[libx265 @ 000001c143830b40] Unknown option: \"aq-mode.\nx265 [info]: HEVC encoder version 4.1+190-8f11c33ac\nx265 [info]: build info [Windows][GCC 15.1.0][64 bit] 10bit\nx265 [info]: using cpu capabilities: MMX2 SSE2Fast LZCNT SSSE3 SSE4.2 AVX FMA3 BMI2 AVX2\nx265 [info]: Main 10 profile, Level-4.1 (Main tier)\nx265 [info]: Thread pool created using 12 threads\nx265 [info]: Slices                              : 1\nx265 [info]: frame threads / pool features       : 3 / wpp(17 rows)\nx265 [info]: Coding QT: max CU size, min CU size : 64 / 8\nx265 [info]: Residual QT: max TU size, max depth : 32 / 1 inter / 1 intra\nx265 [info]: ME / range / subpel / merge         : star / 57 / 3 / 3\nx265 [info]: Keyframe min / max / scenecut / bias  : 25 / 250 / 40 / 5.00 \nx265 [info]: Lookahead / bframes / badapt        : 25 / 4 / 2\nx265 [info]: b-pyramid / weightp / weightb       : 1 / 1 / 0\nx265 [info]: References / ref-limit  cu / depth  : 4 / on / on\nx265 [info]: AQ: mode / str / qg-size / cu-tree  : 2 / 1.0 / 32 / 1\nx265 [info]: Rate Control / qCompress            : ABR-1000 kbps / 0.60\nx265 [info]: VBV/HRD buffer / max-rate / init    : 1000 / 1000 / 0.750\nx265 [info]: tools: rect limit-modes rd=4 psy-rd=2.00 rdoq=2 psy-rdoq=1.00\nx265 [info]: tools: rskip mode=1 signhide tmvp strong-intra-smoothing lslices=4\nx265 [info]: tools: deblock sao dhdr10-info\nOutput #0, mp4, to 'C:\\Users\\Peter\\Desktop\\stuff\\MIUN\\quantitative_research\\video_compression\\compressed_videos\\BVI-HD\\hevc\\1\\ParkPlay_1920x1080_50fps_hevc.mp4':\n  Metadata:\n    major_brand     : isom\n    minor_version   : 512\n    compatible_brands: isomiso2avc1mp41\n    encoder         : Lavf62.3.100\n  Stream #0:0(und): Video: hevc (hev1 / 0x31766568), yuv420p10le(tv, progressive), 1920x1080, q=2-31, 1000 kb/s, 50 fps, 12800 tbn (default)\n    Metadata:\n      encoder         : Lavc62.11.100 libx265\n      handler_name    : VideoHandler\n      vendor_id       : [0][0][0][0]\n    Side data:\n      cpb: bitrate max/min/avg: 1000000/0/1000000 buffer size: 1000000 vbv_delay: N/A\nframe=    0 fps=0.0 q=0.0 size=       0KiB time=N/A bitrate=N/A speed=N/A elapsed=0:00:01.05    \nframe=    0 fps=0.0 q=0.0 size=       0KiB time=N/A bitrate=N/A speed=N/A elapsed=0:00:01.61    \nframe=    0 fps=0.0 q=0.0 size=       0KiB time=N/A bitrate=N/A speed=N/A elapsed=0:00:02.14    \nframe=    0 fps=0.0 q=0.0 size=       0KiB time=N/A bitrate=N/A speed=N/A elapsed=0:00:02.68    \nframe=    0 fps=0.0 q=0.0 size=       0KiB time=N/A bitrate=N/A speed=N/A elapsed=0:00:03.20    \nframe=    0 fps=0.0 q=0.0 size=       0KiB time=N/A bitrate=N/A speed=N/A elapsed=0:00:03.73    \nframe=    0 fps=0.0 q=0.0 size=       0KiB time=N/A bitrate=N/A speed=N/A elapsed=0:00:04.27    \nframe=    0 fps=0.0 q=0.0 size=       0KiB time=N/A bitrate=N/A speed=N/A elapsed=0:00:04.78    \nframe=    0 fps=0.0 q=0.0 size=       0KiB time=N/A bitrate=N/A speed=N/A elapsed=0:00:05.34    \nframe=    0 fps=0.0 q=0.0 size=       0KiB time=N/A bitrate=N/A speed=N/A elapsed=0:00:05.89    \nframe=    0 fps=0.0 q=0.0 size=       0KiB time=N/A bitrate=N/A speed=N/A elapsed=0:00:06.41    \nframe=    0 fps=0.0 q=0.0 size=       0KiB time=N/A bitrate=N/A speed=N/A elapsed=0:00:06.95    \nframe=    0 fps=0.0 q=0.0 size=       0KiB time=N/A bitrate=N/A speed=N/A elapsed=0:00:07.49    \nframe=    0 fps=0.0 q=0.0 size=       0KiB time=N/A bitrate=N/A speed=N/A elapsed=0:00:08.02    \nframe=    0 fps=0.0 q=0.0 size=       0KiB time=N/A bitrate=N/A speed=N/A elapsed=0:00:08.56    \nframe=    0 fps=0.0 q=0.0 size=       0KiB time=N/A bitrate=N/A speed=N/A elapsed=0:00:09.11    \nframe=    0 fps=0.0 q=0.0 size=       0KiB time=N/A bitrate=N/A speed=N/A elapsed=0:00:09.62    \nframe=    1 fps=0.1 q=50.0 size=       0KiB time=-00:00:00.02 bitrate=N/A speed=N/A elapsed=0:00:10.17    \nframe=    1 fps=0.1 q=50.0 size=       0KiB time=-00:00:00.02 bitrate=N/A speed=N/A elapsed=0:00:10.70    \nframe=    1 fps=0.1 q=50.0 size=       0KiB time=-00:00:00.02 bitrate=N/A speed=N/A elapsed=0:00:11.23    \nframe=    1 fps=0.1 q=50.0 size=       0KiB time=-00:00:00.02 bitrate=N/A speed=N/A elapsed=0:00:11.76    \nframe=    1 fps=0.1 q=50.0 size=       0KiB time=-00:00:00.02 bitrate=N/A speed=N/A elapsed=0:00:12.27    \nframe=    3 fps=0.2 q=51.0 size=       0KiB time=00:00:00.02 bitrate=  17.6kbits/s speed=0.00156x elapsed=0:00:12.82    \nframe=    3 fps=0.2 q=51.0 size=       0KiB time=00:00:00.02 bitrate=  17.6kbits/s speed=0.0015x elapsed=0:00:13.34    \nframe=    3 fps=0.2 q=51.0 size=       0KiB time=00:00:00.02 bitrate=  17.6kbits/s speed=0.00144x elapsed=0:00:13.86    \nframe=    3 fps=0.2 q=51.0 size=       0KiB time=00:00:00.02 bitrate=  17.6kbits/s speed=0.00139x elapsed=0:00:14.38    \nframe=    3 fps=0.2 q=51.0 size=       0KiB time=00:00:00.02 bitrate=  17.6kbits/s speed=0.00134x elapsed=0:00:14.90    \nframe=    3 fps=0.2 q=51.0 size=       0KiB time=00:00:00.02 bitrate=  17.6kbits/s speed=0.0013x elapsed=0:00:15.44    \nframe=    4 fps=0.3 q=51.0 size=       0KiB time=00:00:00.04 bitrate=   8.8kbits/s speed=0.0025x elapsed=0:00:15.98    \nframe=    4 fps=0.2 q=51.0 size=       0KiB time=00:00:00.04 bitrate=   8.8kbits/s speed=0.00242x elapsed=0:00:16.51    \nframe=    4 fps=0.2 q=51.0 size=       0KiB time=00:00:00.04 bitrate=   8.8kbits/s speed=0.00235x elapsed=0:00:17.05    \nframe=    5 fps=0.3 q=51.0 size=       0KiB time=00:00:00.06 bitrate=   5.9kbits/s speed=0.00341x elapsed=0:00:17.57    \nframe=    5 fps=0.3 q=51.0 size=       0KiB time=00:00:00.06 bitrate=   5.9kbits/s speed=0.00331x elapsed=0:00:18.12    \nframe=    6 fps=0.3 q=50.7 size=       0KiB time=00:00:00.08 bitrate=   4.4kbits/s speed=0.00429x elapsed=0:00:18.65    \nframe=    7 fps=0.4 q=51.0 size=       0KiB time=00:00:00.10 bitrate=   3.5kbits/s speed=0.00521x elapsed=0:00:19.19    \nframe=    7 fps=0.4 q=51.0 size=       0KiB time=00:00:00.10 bitrate=   3.5kbits/s speed=0.00507x elapsed=0:00:19.70    \nframe=    7 fps=0.3 q=51.0 size=       0KiB time=00:00:00.10 bitrate=   3.5kbits/s speed=0.00495x elapsed=0:00:20.21    \nframe=    8 fps=0.4 q=51.0 size=       0KiB time=00:00:00.12 bitrate=   2.9kbits/s speed=0.00578x elapsed=0:00:20.75    \nframe=    8 fps=0.4 q=51.0 size=       0KiB time=00:00:00.12 bitrate=   2.9kbits/s speed=0.00564x elapsed=0:00:21.28    \nframe=    9 fps=0.4 q=51.0 size=       0KiB time=00:00:00.14 bitrate=   2.5kbits/s speed=0.00641x elapsed=0:00:21.82    \nframe=    9 fps=0.4 q=51.0 size=       0KiB time=00:00:00.14 bitrate=   2.5kbits/s speed=0.00626x elapsed=0:00:22.35    \nframe=    9 fps=0.4 q=51.0 size=       0KiB time=00:00:00.14 bitrate=   2.5kbits/s speed=0.00612x elapsed=0:00:22.89    \nframe=   10 fps=0.4 q=49.3 size=       0KiB time=00:00:00.16 bitrate=   2.2kbits/s speed=0.00683x elapsed=0:00:23.41    \nframe=   10 fps=0.4 q=49.3 size=       0KiB time=00:00:00.16 bitrate=   2.2kbits/s speed=0.00668x elapsed=0:00:23.96    \nframe=   10 fps=0.4 q=49.3 size=       0KiB time=00:00:00.16 bitrate=   2.2kbits/s speed=0.00654x elapsed=0:00:24.48    \nframe=   11 fps=0.4 q=51.0 size=       0KiB time=00:00:00.18 bitrate=   2.0kbits/s speed=0.0072x elapsed=0:00:25.01    \nframe=   11 fps=0.4 q=51.0 size=       0KiB time=00:00:00.18 bitrate=   2.0kbits/s speed=0.00705x elapsed=0:00:25.54    \nframe=   11 fps=0.4 q=51.0 size=       0KiB time=00:00:00.18 bitrate=   2.0kbits/s speed=0.0069x elapsed=0:00:26.07    \nframe=   12 fps=0.5 q=51.0 size=       0KiB time=00:00:00.20 bitrate=   1.8kbits/s speed=0.00752x elapsed=0:00:26.59    \nframe=   12 fps=0.4 q=51.0 size=       0KiB time=00:00:00.20 bitrate=   1.8kbits/s speed=0.00737x elapsed=0:00:27.12    \nframe=   12 fps=0.4 q=51.0 size=       0KiB time=00:00:00.20 bitrate=   1.8kbits/s speed=0.00722x elapsed=0:00:27.69    \nframe=   12 fps=0.4 q=51.0 size=       0KiB time=00:00:00.20 bitrate=   1.8kbits/s speed=0.00708x elapsed=0:00:28.23    \nframe=   13 fps=0.5 q=51.0 size=       0KiB time=00:00:00.22 bitrate=   1.6kbits/s speed=0.00764x elapsed=0:00:28.77    \nframe=   13 fps=0.4 q=51.0 size=       0KiB time=00:00:00.22 bitrate=   1.6kbits/s speed=0.00751x elapsed=0:00:29.30    \nframe=   13 fps=0.4 q=51.0 size=       0KiB time=00:00:00.22 bitrate=   1.6kbits/s speed=0.00736x elapsed=0:00:29.88    \nframe=   13 fps=0.4 q=51.0 size=       0KiB time=00:00:00.22 bitrate=   1.6kbits/s speed=0.00721x elapsed=0:00:30.52    \nframe=   13 fps=0.4 q=51.0 size=       0KiB time=00:00:00.22 bitrate=   1.6kbits/s speed=0.00705x elapsed=0:00:31.19    \nframe=   13 fps=0.4 q=51.0 size=       0KiB time=00:00:00.22 bitrate=   1.6kbits/s speed=0.00692x elapsed=0:00:31.77    \nframe=   14 fps=0.4 q=48.0 size=       0KiB time=00:00:00.24 bitrate=   1.5kbits/s speed=0.00743x elapsed=0:00:32.30    \nframe=   15 fps=0.5 q=50.3 size=       0KiB time=00:00:00.26 bitrate=   1.4kbits/s speed=0.00792x elapsed=0:00:32.82    \nframe=   15 fps=0.5 q=50.3 size=       0KiB time=00:00:00.26 bitrate=   1.4kbits/s speed=0.0078x elapsed=0:00:33.33    \nframe=   15 fps=0.4 q=50.3 size=       0KiB time=00:00:00.26 bitrate=   1.4kbits/s speed=0.00768x elapsed=0:00:33.86    \nframe=   15 fps=0.4 q=50.3 size=       0KiB time=00:00:00.26 bitrate=   1.4kbits/s speed=0.00756x elapsed=0:00:34.38    \nframe=   16 fps=0.5 q=50.8 size=       0KiB time=00:00:00.28 bitrate=   1.3kbits/s speed=0.00802x elapsed=0:00:34.92    \nframe=   16 fps=0.5 q=50.8 size=       0KiB time=00:00:00.28 bitrate=   1.3kbits/s speed=0.00789x elapsed=0:00:35.47    \nframe=   16 fps=0.4 q=50.8 size=       0KiB time=00:00:00.28 bitrate=   1.3kbits/s speed=0.00778x elapsed=0:00:35.98    \nframe=   16 fps=0.4 q=50.8 size=       0KiB time=00:00:00.28 bitrate=   1.3kbits/s speed=0.00767x elapsed=0:00:36.52    \nframe=   16 fps=0.4 q=50.8 size=       0KiB time=00:00:00.28 bitrate=   1.3kbits/s speed=0.00755x elapsed=0:00:37.08    \nframe=   16 fps=0.4 q=50.8 size=       0KiB time=00:00:00.28 bitrate=   1.3kbits/s speed=0.00743x elapsed=0:00:37.68    \nframe=   17 fps=0.4 q=50.7 size=       0KiB time=00:00:00.30 bitrate=   1.2kbits/s speed=0.00784x elapsed=0:00:38.28    \nframe=   17 fps=0.4 q=50.7 size=       0KiB time=00:00:00.30 bitrate=   1.2kbits/s speed=0.00772x elapsed=0:00:38.85    \nframe=   17 fps=0.4 q=50.7 size=       0KiB time=00:00:00.30 bitrate=   1.2kbits/s speed=0.00761x elapsed=0:00:39.42    \nframe=   18 fps=0.5 q=47.8 size=       0KiB time=00:00:00.32 bitrate=   1.1kbits/s speed=0.008x elapsed=0:00:39.97    \nframe=   18 fps=0.4 q=47.8 size=       0KiB time=00:00:00.32 bitrate=   1.1kbits/s speed=0.00789x elapsed=0:00:40.54    \nframe=   18 fps=0.4 q=47.8 size=       0KiB time=00:00:00.32 bitrate=   1.1kbits/s speed=0.00778x elapsed=0:00:41.12    \nframe=   18 fps=0.4 q=47.8 size=       0KiB time=00:00:00.32 bitrate=   1.1kbits/s speed=0.00768x elapsed=0:00:41.69    \nframe=   19 fps=0.4 q=49.6 size=       0KiB time=00:00:00.34 bitrate=   1.0kbits/s speed=0.00805x elapsed=0:00:42.23    \nframe=   19 fps=0.4 q=49.6 size=       0KiB time=00:00:00.34 bitrate=   1.0kbits/s speed=0.00793x elapsed=0:00:42.86    \nframe=   19 fps=0.4 q=49.6 size=       0KiB time=00:00:00.34 bitrate=   1.0kbits/s speed=0.00782x elapsed=0:00:43.45    \nframe=   19 fps=0.4 q=49.6 size=       0KiB time=00:00:00.34 bitrate=   1.0kbits/s speed=0.00773x elapsed=0:00:44.00    \nframe=   19 fps=0.4 q=49.6 size=       0KiB time=00:00:00.34 bitrate=   1.0kbits/s speed=0.00763x elapsed=0:00:44.53    \nframe=   19 fps=0.4 q=49.6 size=       0KiB time=00:00:00.34 bitrate=   1.0kbits/s speed=0.00755x elapsed=0:00:45.05    \nframe=   19 fps=0.4 q=49.6 size=       0KiB time=00:00:00.34 bitrate=   1.0kbits/s speed=0.00745x elapsed=0:00:45.61    \nframe=   19 fps=0.4 q=49.6 size=       0KiB time=00:00:00.34 bitrate=   1.0kbits/s speed=0.00736x elapsed=0:00:46.18    \nframe=   20 fps=0.4 q=50.8 size=       0KiB time=00:00:00.36 bitrate=   1.0kbits/s speed=0.0077x elapsed=0:00:46.76    \nframe=   20 fps=0.4 q=50.8 size=       0KiB time=00:00:00.36 bitrate=   1.0kbits/s speed=0.0076x elapsed=0:00:47.36    \nframe=   20 fps=0.4 q=50.8 size=       0KiB time=00:00:00.36 bitrate=   1.0kbits/s speed=0.00752x elapsed=0:00:47.90    \nframe=   20 fps=0.4 q=50.8 size=       0KiB time=00:00:00.36 bitrate=   1.0kbits/s speed=0.00743x elapsed=0:00:48.44    \nframe=   20 fps=0.4 q=50.8 size=       0KiB time=00:00:00.36 bitrate=   1.0kbits/s speed=0.00735x elapsed=0:00:48.99    \nframe=   20 fps=0.4 q=50.8 size=       0KiB time=00:00:00.36 bitrate=   1.0kbits/s speed=0.00726x elapsed=0:00:49.56    \nframe=   20 fps=0.4 q=50.8 size=       0KiB time=00:00:00.36 bitrate=   1.0kbits/s speed=0.00718x elapsed=0:00:50.10    \nframe=   20 fps=0.4 q=50.8 size=       0KiB time=00:00:00.36 bitrate=   1.0kbits/s speed=0.00711x elapsed=0:00:50.63    \nframe=   21 fps=0.4 q=50.6 size=       0KiB time=00:00:00.38 bitrate=   0.9kbits/s speed=0.00743x elapsed=0:00:51.14    \nframe=   21 fps=0.4 q=50.6 size=       0KiB time=00:00:00.38 bitrate=   0.9kbits/s speed=0.00735x elapsed=0:00:51.67    \nframe=   21 fps=0.4 q=50.6 size=       0KiB time=00:00:00.38 bitrate=   0.9kbits/s speed=0.00728x elapsed=0:00:52.22    \nframe=   21 fps=0.4 q=50.6 size=       0KiB time=00:00:00.38 bitrate=   0.9kbits/s speed=0.00719x elapsed=0:00:52.82    \nframe=   22 fps=0.4 q=47.3 size=       0KiB time=00:00:00.40 bitrate=   0.9kbits/s speed=0.0075x elapsed=0:00:53.36    \nframe=   22 fps=0.4 q=47.3 size=       0KiB time=00:00:00.40 bitrate=   0.9kbits/s speed=0.00742x elapsed=0:00:53.92    \nframe=   23 fps=0.4 q=49.3 size=       0KiB time=00:00:00.42 bitrate=   0.8kbits/s speed=0.0077x elapsed=0:00:54.52    \nframe=   23 fps=0.4 q=49.3 size=       0KiB time=00:00:00.42 bitrate=   0.8kbits/s speed=0.00762x elapsed=0:00:55.08    \nframe=   23 fps=0.4 q=49.3 size=       0KiB time=00:00:00.42 bitrate=   0.8kbits/s speed=0.00755x elapsed=0:00:55.65    \nframe=   23 fps=0.4 q=49.3 size=       0KiB time=00:00:00.42 bitrate=   0.8kbits/s speed=0.00747x elapsed=0:00:56.20    \nframe=   23 fps=0.4 q=49.3 size=       0KiB time=00:00:00.42 bitrate=   0.8kbits/s speed=0.0074x elapsed=0:00:56.78    \nframe=   23 fps=0.4 q=49.3 size=       0KiB time=00:00:00.42 bitrate=   0.8kbits/s speed=0.00732x elapsed=0:00:57.34    \nframe=   24 fps=0.4 q=50.6 size=       0KiB time=00:00:00.44 bitrate=   0.8kbits/s speed=0.0076x elapsed=0:00:57.86    \nframe=   24 fps=0.4 q=50.6 size=       0KiB time=00:00:00.44 bitrate=   0.8kbits/s speed=0.00753x elapsed=0:00:58.39    \nframe=   24 fps=0.4 q=50.6 size=       0KiB time=00:00:00.44 bitrate=   0.8kbits/s speed=0.00747x elapsed=0:00:58.92    \nframe=   24 fps=0.4 q=50.6 size=       0KiB time=00:00:00.44 bitrate=   0.8kbits/s speed=0.0074x elapsed=0:00:59.45    \nframe=   24 fps=0.4 q=50.6 size=       0KiB time=00:00:00.44 bitrate=   0.8kbits/s speed=0.00734x elapsed=0:00:59.98    \nframe=   25 fps=0.4 q=50.4 size=       0KiB time=00:00:00.46 bitrate=   0.8kbits/s speed=0.00759x elapsed=0:01:00.59    \nframe=   25 fps=0.4 q=50.4 size=       0KiB time=00:00:00.46 bitrate=   0.8kbits/s speed=0.00753x elapsed=0:01:01.11    \nframe=   25 fps=0.4 q=50.4 size=       0KiB time=00:00:00.46 bitrate=   0.8kbits/s speed=0.00746x elapsed=0:01:01.64    \nframe=   25 fps=0.4 q=50.4 size=       0KiB time=00:00:00.46 bitrate=   0.8kbits/s speed=0.00739x elapsed=0:01:02.21    \nframe=   25 fps=0.4 q=50.4 size=       0KiB time=00:00:00.46 bitrate=   0.8kbits/s speed=0.00733x elapsed=0:01:02.78    \nframe=   26 fps=0.4 q=47.2 size=       0KiB time=00:00:00.48 bitrate=   0.7kbits/s speed=0.00758x elapsed=0:01:03.32    \nframe=   27 fps=0.4 q=49.1 size=       0KiB time=00:00:00.50 bitrate=   0.7kbits/s speed=0.00783x elapsed=0:01:03.84    \nframe=   27 fps=0.4 q=49.1 size=       0KiB time=00:00:00.50 bitrate=   0.7kbits/s speed=0.00777x elapsed=0:01:04.37    \nframe=   27 fps=0.4 q=49.1 size=       0KiB time=00:00:00.50 bitrate=   0.7kbits/s speed=0.0077x elapsed=0:01:04.90    \nframe=   28 fps=0.4 q=50.5 size=       0KiB time=00:00:00.52 bitrate=   0.7kbits/s speed=0.00795x elapsed=0:01:05.43    \nframe=   28 fps=0.4 q=50.5 size=       0KiB time=00:00:00.52 bitrate=   0.7kbits/s speed=0.00788x elapsed=0:01:06.00    \nframe=   28 fps=0.4 q=50.5 size=       0KiB time=00:00:00.52 bitrate=   0.7kbits/s speed=0.00782x elapsed=0:01:06.53    \nframe=   28 fps=0.4 q=50.5 size=       0KiB time=00:00:00.52 bitrate=   0.7kbits/s speed=0.00775x elapsed=0:01:07.05    \nframe=   28 fps=0.4 q=50.5 size=       0KiB time=00:00:00.52 bitrate=   0.7kbits/s speed=0.00769x elapsed=0:01:07.61    \nframe=   28 fps=0.4 q=50.5 size=       0KiB time=00:00:00.52 bitrate=   0.7kbits/s speed=0.00763x elapsed=0:01:08.18    \nframe=   28 fps=0.4 q=50.5 size=       0KiB time=00:00:00.52 bitrate=   0.7kbits/s speed=0.00757x elapsed=0:01:08.73    \nframe=   28 fps=0.4 q=50.5 size=       0KiB time=00:00:00.52 bitrate=   0.7kbits/s speed=0.0075x elapsed=0:01:09.31    \nframe=   28 fps=0.4 q=50.5 size=       0KiB time=00:00:00.52 bitrate=   0.7kbits/s speed=0.00744x elapsed=0:01:09.92    \nframe=   28 fps=0.4 q=50.5 size=       0KiB time=00:00:00.52 bitrate=   0.7kbits/s speed=0.00737x elapsed=0:01:10.52    \nframe=   28 fps=0.4 q=50.5 size=       0KiB time=00:00:00.52 bitrate=   0.7kbits/s speed=0.00731x elapsed=0:01:11.09    \nframe=   28 fps=0.4 q=50.5 size=       0KiB time=00:00:00.52 bitrate=   0.7kbits/s speed=0.00726x elapsed=0:01:11.64    \nframe=   29 fps=0.4 q=50.6 size=       0KiB time=00:00:00.54 bitrate=   0.7kbits/s speed=0.00748x elapsed=0:01:12.18    \nframe=   29 fps=0.4 q=50.6 size=       0KiB time=00:00:00.54 bitrate=   0.7kbits/s speed=0.00743x elapsed=0:01:12.72    \nframe=   30 fps=0.4 q=46.9 size=       0KiB time=00:00:00.56 bitrate=   0.6kbits/s speed=0.00764x elapsed=0:01:13.31    \nframe=   30 fps=0.4 q=46.9 size=       0KiB time=00:00:00.56 bitrate=   0.6kbits/s speed=0.00758x elapsed=0:01:13.83    \nframe=   31 fps=0.4 q=48.8 size=       0KiB time=00:00:00.58 bitrate=   0.6kbits/s speed=0.0078x elapsed=0:01:14.34    \nframe=   31 fps=0.4 q=48.8 size=       0KiB time=00:00:00.58 bitrate=   0.6kbits/s speed=0.00775x elapsed=0:01:14.86    \nframe=   31 fps=0.4 q=48.8 size=       0KiB time=00:00:00.58 bitrate=   0.6kbits/s speed=0.00769x elapsed=0:01:15.38    \nframe=   31 fps=0.4 q=48.8 size=       0KiB time=00:00:00.58 bitrate=   0.6kbits/s speed=0.00764x elapsed=0:01:15.91    \nframe=   32 fps=0.4 q=50.6 size=       0KiB time=00:00:00.60 bitrate=   0.6kbits/s speed=0.00785x elapsed=0:01:16.44    \nframe=   32 fps=0.4 q=50.6 size=       0KiB time=00:00:00.60 bitrate=   0.6kbits/s speed=0.00779x elapsed=0:01:16.97    \nframe=   32 fps=0.4 q=50.6 size=       0KiB time=00:00:00.60 bitrate=   0.6kbits/s speed=0.00774x elapsed=0:01:17.50    \nframe=   33 fps=0.4 q=50.6 size=       0KiB time=00:00:00.62 bitrate=   0.6kbits/s speed=0.00795x elapsed=0:01:18.02    \nframe=   34 fps=0.4 q=47.3 size=       0KiB time=00:00:00.64 bitrate=   0.6kbits/s speed=0.00815x elapsed=0:01:18.56    \nframe=   35 fps=0.4 q=48.9 size=       0KiB time=00:00:00.66 bitrate=   0.5kbits/s speed=0.00834x elapsed=0:01:19.10    \nframe=   35 fps=0.4 q=48.9 size=       0KiB time=00:00:00.66 bitrate=   0.5kbits/s speed=0.00829x elapsed=0:01:19.64    \nframe=   35 fps=0.4 q=48.9 size=       0KiB time=00:00:00.66 bitrate=   0.5kbits/s speed=0.00823x elapsed=0:01:20.17    \nframe=   35 fps=0.4 q=48.9 size=       0KiB time=00:00:00.66 bitrate=   0.5kbits/s speed=0.00818x elapsed=0:01:20.69    \nframe=   35 fps=0.4 q=48.9 size=       0KiB time=00:00:00.66 bitrate=   0.5kbits/s speed=0.00813x elapsed=0:01:21.22    \nframe=   36 fps=0.4 q=50.6 size=       0KiB time=00:00:00.68 bitrate=   0.5kbits/s speed=0.00832x elapsed=0:01:21.74    \nframe=   36 fps=0.4 q=50.6 size=       0KiB time=00:00:00.68 bitrate=   0.5kbits/s speed=0.00827x elapsed=0:01:22.26    \nframe=   36 fps=0.4 q=50.6 size=       0KiB time=00:00:00.68 bitrate=   0.5kbits/s speed=0.00821x elapsed=0:01:22.78    \nframe=   37 fps=0.4 q=50.6 size=       0KiB time=00:00:00.70 bitrate=   0.5kbits/s speed=0.0084x elapsed=0:01:23.35    \nframe=   37 fps=0.4 q=50.6 size=       0KiB time=00:00:00.70 bitrate=   0.5kbits/s speed=0.00835x elapsed=0:01:23.87    \nframe=   38 fps=0.5 q=47.1 size=       0KiB time=00:00:00.72 bitrate=   0.5kbits/s speed=0.00853x elapsed=0:01:24.41    \nframe=   39 fps=0.5 q=48.9 size=       0KiB time=00:00:00.74 bitrate=   0.5kbits/s speed=0.00871x elapsed=0:01:24.98    \nframe=   39 fps=0.5 q=48.9 size=       0KiB time=00:00:00.74 bitrate=   0.5kbits/s speed=0.00865x elapsed=0:01:25.52    \nframe=   39 fps=0.5 q=48.9 size=       0KiB time=00:00:00.74 bitrate=   0.5kbits/s speed=0.0086x elapsed=0:01:26.05    \nframe=   39 fps=0.5 q=48.9 size=       0KiB time=00:00:00.74 bitrate=   0.5kbits/s speed=0.00855x elapsed=0:01:26.59    \nframe=   40 fps=0.5 q=50.6 size=       0KiB time=00:00:00.76 bitrate=   0.5kbits/s speed=0.00872x elapsed=0:01:27.13    \nframe=   40 fps=0.5 q=50.6 size=       0KiB time=00:00:00.76 bitrate=   0.5kbits/s speed=0.00867x elapsed=0:01:27.64    \nframe=   40 fps=0.5 q=50.6 size=       0KiB time=00:00:00.76 bitrate=   0.5kbits/s speed=0.00862x elapsed=0:01:28.17    \nframe=   40 fps=0.5 q=50.6 size=       0KiB time=00:00:00.76 bitrate=   0.5kbits/s speed=0.00857x elapsed=0:01:28.69    \nframe=   40 fps=0.4 q=50.6 size=       0KiB time=00:00:00.76 bitrate=   0.5kbits/s speed=0.00852x elapsed=0:01:29.20    \nframe=   41 fps=0.5 q=50.7 size=       0KiB time=00:00:00.78 bitrate=   0.5kbits/s speed=0.00869x elapsed=0:01:29.72    \nframe=   41 fps=0.5 q=50.7 size=       0KiB time=00:00:00.78 bitrate=   0.5kbits/s speed=0.00864x elapsed=0:01:30.27    \nframe=   41 fps=0.5 q=50.7 size=       0KiB time=00:00:00.78 bitrate=   0.5kbits/s speed=0.00859x elapsed=0:01:30.80    \nframe=   42 fps=0.5 q=47.2 size=       0KiB time=00:00:00.80 bitrate=   0.4kbits/s speed=0.00876x elapsed=0:01:31.34    \nframe=   42 fps=0.5 q=47.2 size=       0KiB time=00:00:00.80 bitrate=   0.4kbits/s speed=0.00871x elapsed=0:01:31.86    \nframe=   42 fps=0.5 q=47.2 size=       0KiB time=00:00:00.80 bitrate=   0.4kbits/s speed=0.00866x elapsed=0:01:32.40    \nframe=   43 fps=0.5 q=48.7 size=       0KiB time=00:00:00.82 bitrate=   0.4kbits/s speed=0.00882x elapsed=0:01:32.93    \nframe=   43 fps=0.5 q=48.7 size=       0KiB time=00:00:00.82 bitrate=   0.4kbits/s speed=0.00877x elapsed=0:01:33.46    \nframe=   43 fps=0.5 q=48.7 size=       0KiB time=00:00:00.82 bitrate=   0.4kbits/s speed=0.00872x elapsed=0:01:34.01    \nframe=   43 fps=0.5 q=48.7 size=       0KiB time=00:00:00.82 bitrate=   0.4kbits/s speed=0.00867x elapsed=0:01:34.55    \nframe=   43 fps=0.5 q=48.7 size=       0KiB time=00:00:00.82 bitrate=   0.4kbits/s speed=0.00862x elapsed=0:01:35.07    \nframe=   44 fps=0.5 q=50.9 size=       0KiB time=00:00:00.84 bitrate=   0.4kbits/s speed=0.00879x elapsed=0:01:35.60    \nframe=   44 fps=0.5 q=50.9 size=       0KiB time=00:00:00.84 bitrate=   0.4kbits/s speed=0.00874x elapsed=0:01:36.15    \nframe=   45 fps=0.5 q=50.7 size=       0KiB time=00:00:00.86 bitrate=   0.4kbits/s speed=0.00889x elapsed=0:01:36.68    \nframe=   45 fps=0.5 q=50.7 size=       0KiB time=00:00:00.86 bitrate=   0.4kbits/s speed=0.00885x elapsed=0:01:37.21    \nframe=   45 fps=0.5 q=50.7 size=       0KiB time=00:00:00.86 bitrate=   0.4kbits/s speed=0.0088x elapsed=0:01:37.74    \nframe=   46 fps=0.5 q=47.1 size=       0KiB time=00:00:00.88 bitrate=   0.4kbits/s speed=0.00895x elapsed=0:01:38.28    \nframe=   47 fps=0.5 q=48.6 size=       0KiB time=00:00:00.90 bitrate=   0.4kbits/s speed=0.00911x elapsed=0:01:38.82    \nframe=   47 fps=0.5 q=48.6 size=       0KiB time=00:00:00.90 bitrate=   0.4kbits/s speed=0.00906x elapsed=0:01:39.36    \nframe=   48 fps=0.5 q=50.8 size=       0KiB time=00:00:00.92 bitrate=   0.4kbits/s speed=0.00921x elapsed=0:01:39.89    \nframe=   49 fps=0.5 q=50.8 size=       0KiB time=00:00:00.94 bitrate=   0.4kbits/s speed=0.00936x elapsed=0:01:40.42    \nframe=   49 fps=0.5 q=50.8 size=       0KiB time=00:00:00.94 bitrate=   0.4kbits/s speed=0.00931x elapsed=0:01:40.95    \nframe=   49 fps=0.5 q=50.8 size=       0KiB time=00:00:00.94 bitrate=   0.4kbits/s speed=0.00926x elapsed=0:01:41.49    \nframe=   49 fps=0.5 q=50.8 size=       0KiB time=00:00:00.94 bitrate=   0.4kbits/s speed=0.00921x elapsed=0:01:42.02    \nframe=   50 fps=0.5 q=47.0 size=       0KiB time=00:00:00.96 bitrate=   0.4kbits/s speed=0.00936x elapsed=0:01:42.55    \nframe=   50 fps=0.5 q=47.0 size=       0KiB time=00:00:00.96 bitrate=   0.4kbits/s speed=0.00931x elapsed=0:01:43.11    \nframe=   50 fps=0.5 q=47.0 size=       0KiB time=00:00:00.96 bitrate=   0.4kbits/s speed=0.00925x elapsed=0:01:43.74    \nframe=   50 fps=0.5 q=47.0 size=       0KiB time=00:00:00.96 bitrate=   0.4kbits/s speed=0.0092x elapsed=0:01:44.39    \nframe=   50 fps=0.5 q=47.0 size=       0KiB time=00:00:00.96 bitrate=   0.4kbits/s speed=0.00914x elapsed=0:01:45.05    \nframe=   50 fps=0.5 q=47.0 size=       0KiB time=00:00:00.96 bitrate=   0.4kbits/s speed=0.00908x elapsed=0:01:45.70    \nframe=   50 fps=0.5 q=47.0 size=       0KiB time=00:00:00.96 bitrate=   0.4kbits/s speed=0.00904x elapsed=0:01:46.23    \nframe=   51 fps=0.5 q=49.3 size=       0KiB time=00:00:00.98 bitrate=   0.4kbits/s speed=0.00918x elapsed=0:01:46.75    \nframe=   51 fps=0.5 q=49.3 size=       0KiB time=00:00:00.98 bitrate=   0.4kbits/s speed=0.00913x elapsed=0:01:47.28    \nframe=   51 fps=0.5 q=49.3 size=       0KiB time=00:00:00.98 bitrate=   0.4kbits/s speed=0.00909x elapsed=0:01:47.81    \nframe=   51 fps=0.5 q=49.3 size=       0KiB time=00:00:00.98 bitrate=   0.4kbits/s speed=0.00905x elapsed=0:01:48.34    \nframe=   52 fps=0.5 q=50.8 size=       0KiB time=00:00:01.00 bitrate=   0.4kbits/s speed=0.00918x elapsed=0:01:48.89    \nframe=   52 fps=0.5 q=50.8 size=       0KiB time=00:00:01.00 bitrate=   0.4kbits/s speed=0.00914x elapsed=0:01:49.45    \nframe=   52 fps=0.5 q=50.8 size=       0KiB time=00:00:01.00 bitrate=   0.4kbits/s speed=0.00909x elapsed=0:01:50.01    \nframe=   52 fps=0.5 q=50.8 size=       0KiB time=00:00:01.00 bitrate=   0.4kbits/s speed=0.00904x elapsed=0:01:50.59    \nframe=   52 fps=0.5 q=50.8 size=       0KiB time=00:00:01.00 bitrate=   0.4kbits/s speed=0.00899x elapsed=0:01:51.21    \nframe=   52 fps=0.5 q=50.8 size=       0KiB time=00:00:01.00 bitrate=   0.4kbits/s speed=0.00894x elapsed=0:01:51.83    \nframe=   52 fps=0.5 q=50.8 size=       0KiB time=00:00:01.00 bitrate=   0.4kbits/s speed=0.00889x elapsed=0:01:52.45    \nframe=   52 fps=0.5 q=50.8 size=       0KiB time=00:00:01.00 bitrate=   0.4kbits/s speed=0.00884x elapsed=0:01:53.07    \nframe=   52 fps=0.5 q=50.8 size=       0KiB time=00:00:01.00 bitrate=   0.4kbits/s speed=0.00879x elapsed=0:01:53.72    \nframe=   52 fps=0.5 q=50.8 size=       0KiB time=00:00:01.00 bitrate=   0.4kbits/s speed=0.00875x elapsed=0:01:54.27    \nframe=   52 fps=0.5 q=50.8 size=       0KiB time=00:00:01.00 bitrate=   0.4kbits/s speed=0.00871x elapsed=0:01:54.82    \nframe=   52 fps=0.5 q=50.8 size=       0KiB time=00:00:01.00 bitrate=   0.4kbits/s speed=0.00867x elapsed=0:01:55.34    \nframe=   52 fps=0.4 q=50.8 size=       0KiB time=00:00:01.00 bitrate=   0.4kbits/s speed=0.00863x elapsed=0:01:55.93    \nframe=   53 fps=0.5 q=50.8 size=       0KiB time=00:00:01.02 bitrate=   0.3kbits/s speed=0.00876x elapsed=0:01:56.49    \nframe=   53 fps=0.5 q=50.8 size=       0KiB time=00:00:01.02 bitrate=   0.3kbits/s speed=0.00871x elapsed=0:01:57.07    \nframe=   53 fps=0.5 q=50.8 size=       0KiB time=00:00:01.02 bitrate=   0.3kbits/s speed=0.00867x elapsed=0:01:57.63    \nframe=   53 fps=0.4 q=50.8 size=       0KiB time=00:00:01.02 bitrate=   0.3kbits/s speed=0.00863x elapsed=0:01:58.16    \nframe=   53 fps=0.4 q=50.8 size=       0KiB time=00:00:01.02 bitrate=   0.3kbits/s speed=0.00859x elapsed=0:01:58.68    \nframe=   54 fps=0.5 q=47.1 size=       0KiB time=00:00:01.04 bitrate=   0.3kbits/s speed=0.00872x elapsed=0:01:59.25    \nframe=   54 fps=0.5 q=47.1 size=       0KiB time=00:00:01.04 bitrate=   0.3kbits/s speed=0.00868x elapsed=0:01:59.79    \nframe=   55 fps=0.5 q=49.2 size=       0KiB time=00:00:01.06 bitrate=   0.3kbits/s speed=0.00881x elapsed=0:02:00.32    \nframe=   55 fps=0.5 q=49.2 size=       0KiB time=00:00:01.06 bitrate=   0.3kbits/s speed=0.00877x elapsed=0:02:00.85    \nframe=   55 fps=0.5 q=49.2 size=       0KiB time=00:00:01.06 bitrate=   0.3kbits/s speed=0.00873x elapsed=0:02:01.45    \nframe=   55 fps=0.5 q=49.2 size=       0KiB time=00:00:01.06 bitrate=   0.3kbits/s speed=0.00869x elapsed=0:02:02.01    \nframe=   55 fps=0.4 q=49.2 size=       0KiB time=00:00:01.06 bitrate=   0.3kbits/s speed=0.00864x elapsed=0:02:02.63    \nframe=   56 fps=0.5 q=50.9 size=       0KiB time=00:00:01.08 bitrate=   0.3kbits/s speed=0.00876x elapsed=0:02:03.22    \nframe=   56 fps=0.5 q=50.9 size=       0KiB time=00:00:01.08 bitrate=   0.3kbits/s speed=0.00873x elapsed=0:02:03.74    \nframe=   56 fps=0.5 q=50.9 size=       0KiB time=00:00:01.08 bitrate=   0.3kbits/s speed=0.00869x elapsed=0:02:04.29    \nframe=   56 fps=0.4 q=50.9 size=       0KiB time=00:00:01.08 bitrate=   0.3kbits/s speed=0.00865x elapsed=0:02:04.85    \nframe=   56 fps=0.4 q=50.9 size=       0KiB time=00:00:01.08 bitrate=   0.3kbits/s speed=0.00861x elapsed=0:02:05.38    \nframe=   56 fps=0.4 q=50.9 size=       0KiB time=00:00:01.08 bitrate=   0.3kbits/s speed=0.00858x elapsed=0:02:05.94    \nframe=   56 fps=0.4 q=50.9 size=       0KiB time=00:00:01.08 bitrate=   0.3kbits/s speed=0.00854x elapsed=0:02:06.51    \nframe=   56 fps=0.4 q=50.9 size=       0KiB time=00:00:01.08 bitrate=   0.3kbits/s speed=0.00849x elapsed=0:02:07.15    \nframe=   57 fps=0.4 q=50.8 size=       0KiB time=00:00:01.10 bitrate=   0.3kbits/s speed=0.00861x elapsed=0:02:07.71    \nframe=   57 fps=0.4 q=50.8 size=       0KiB time=00:00:01.10 bitrate=   0.3kbits/s speed=0.00858x elapsed=0:02:08.24    \nframe=   57 fps=0.4 q=50.8 size=       0KiB time=00:00:01.10 bitrate=   0.3kbits/s speed=0.00854x elapsed=0:02:08.79    \nframe=   57 fps=0.4 q=50.8 size=       0KiB time=00:00:01.10 bitrate=   0.3kbits/s speed=0.0085x elapsed=0:02:09.40    \nframe=   57 fps=0.4 q=50.8 size=       0KiB time=00:00:01.10 bitrate=   0.3kbits/s speed=0.00846x elapsed=0:02:09.99    \nframe=   58 fps=0.4 q=46.9 size=       0KiB time=00:00:01.12 bitrate=   0.3kbits/s speed=0.00858x elapsed=0:02:10.51    \nframe=   58 fps=0.4 q=46.9 size=       0KiB time=00:00:01.12 bitrate=   0.3kbits/s speed=0.00854x elapsed=0:02:11.10    \nframe=   58 fps=0.4 q=46.9 size=       0KiB time=00:00:01.12 bitrate=   0.3kbits/s speed=0.0085x elapsed=0:02:11.69    \nframe=   59 fps=0.4 q=49.3 size=       0KiB time=00:00:01.14 bitrate=   0.3kbits/s speed=0.00862x elapsed=0:02:12.25    \nframe=   59 fps=0.4 q=49.3 size=       0KiB time=00:00:01.14 bitrate=   0.3kbits/s speed=0.00858x elapsed=0:02:12.80    \nframe=   59 fps=0.4 q=49.3 size=       0KiB time=00:00:01.14 bitrate=   0.3kbits/s speed=0.00855x elapsed=0:02:13.32    \nframe=   59 fps=0.4 q=49.3 size=       0KiB time=00:00:01.14 bitrate=   0.3kbits/s speed=0.00852x elapsed=0:02:13.84    \nframe=   59 fps=0.4 q=49.3 size=       0KiB time=00:00:01.14 bitrate=   0.3kbits/s speed=0.00848x elapsed=0:02:14.37    \nframe=   59 fps=0.4 q=49.3 size=       0KiB time=00:00:01.14 bitrate=   0.3kbits/s speed=0.00845x elapsed=0:02:14.93    \nframe=   60 fps=0.4 q=50.9 size=       0KiB time=00:00:01.16 bitrate=   0.3kbits/s speed=0.00856x elapsed=0:02:15.57    \nframe=   60 fps=0.4 q=50.9 size=       0KiB time=00:00:01.16 bitrate=   0.3kbits/s speed=0.00852x elapsed=0:02:16.11    \nframe=   60 fps=0.4 q=50.9 size=       0KiB time=00:00:01.16 bitrate=   0.3kbits/s speed=0.00849x elapsed=0:02:16.65    \nframe=   60 fps=0.4 q=50.9 size=       0KiB time=00:00:01.16 bitrate=   0.3kbits/s speed=0.00846x elapsed=0:02:17.19    \nframe=   60 fps=0.4 q=50.9 size=       0KiB time=00:00:01.16 bitrate=   0.3kbits/s speed=0.00842x elapsed=0:02:17.77    \nframe=   61 fps=0.4 q=50.8 size=       0KiB time=00:00:01.18 bitrate=   0.3kbits/s speed=0.00853x elapsed=0:02:18.32    \nframe=   61 fps=0.4 q=50.8 size=       0KiB time=00:00:01.18 bitrate=   0.3kbits/s speed=0.0085x elapsed=0:02:18.85    \nframe=   62 fps=0.4 q=46.6 size=       0KiB time=00:00:01.20 bitrate=   0.3kbits/s speed=0.00861x elapsed=0:02:19.39    \nframe=   62 fps=0.4 q=46.6 size=       0KiB time=00:00:01.20 bitrate=   0.3kbits/s speed=0.00858x elapsed=0:02:19.92    \nframe=   63 fps=0.4 q=49.4 size=       0KiB time=00:00:01.22 bitrate=   0.3kbits/s speed=0.00869x elapsed=0:02:20.46    \nframe=   63 fps=0.4 q=49.4 size=       0KiB time=00:00:01.22 bitrate=   0.3kbits/s speed=0.00865x elapsed=0:02:21.00    \nframe=   63 fps=0.4 q=49.4 size=       0KiB time=00:00:01.22 bitrate=   0.3kbits/s speed=0.00862x elapsed=0:02:21.54    \nframe=   63 fps=0.4 q=49.4 size=       0KiB time=00:00:01.22 bitrate=   0.3kbits/s speed=0.00859x elapsed=0:02:22.09    \nframe=   63 fps=0.4 q=49.4 size=       0KiB time=00:00:01.22 bitrate=   0.3kbits/s speed=0.00855x elapsed=0:02:22.64    \nframe=   63 fps=0.4 q=49.4 size=       0KiB time=00:00:01.22 bitrate=   0.3kbits/s speed=0.00852x elapsed=0:02:23.19    \nframe=   63 fps=0.4 q=49.4 size=       0KiB time=00:00:01.22 bitrate=   0.3kbits/s speed=0.00849x elapsed=0:02:23.72    \nframe=   63 fps=0.4 q=49.4 size=       0KiB time=00:00:01.22 bitrate=   0.3kbits/s speed=0.00846x elapsed=0:02:24.27    \nframe=   63 fps=0.4 q=49.4 size=       0KiB time=00:00:01.22 bitrate=   0.3kbits/s speed=0.00842x elapsed=0:02:24.81    \nframe=   64 fps=0.4 q=50.9 size=       0KiB time=00:00:01.24 bitrate=   0.3kbits/s speed=0.00853x elapsed=0:02:25.37    \nframe=   64 fps=0.4 q=50.9 size=       0KiB time=00:00:01.24 bitrate=   0.3kbits/s speed=0.0085x elapsed=0:02:25.92    \nframe=   64 fps=0.4 q=50.9 size=       0KiB time=00:00:01.24 bitrate=   0.3kbits/s speed=0.00847x elapsed=0:02:26.45    \nframe=   65 fps=0.4 q=50.8 size=       0KiB time=00:00:01.24 bitrate=   0.3kbits/s speed=0.00844x elapsed=0:02:26.99    \nframe=   65 fps=0.4 q=50.8 size=       0KiB time=00:00:01.26 bitrate=   0.3kbits/s speed=0.00854x elapsed=0:02:27.53    \nframe=   65 fps=0.4 q=50.8 size=       0KiB time=00:00:01.26 bitrate=   0.3kbits/s speed=0.00851x elapsed=0:02:28.06    \nframe=   65 fps=0.4 q=50.8 size=       0KiB time=00:00:01.26 bitrate=   0.3kbits/s speed=0.00848x elapsed=0:02:28.62    \nframe=   65 fps=0.4 q=50.8 size=       0KiB time=00:00:01.26 bitrate=   0.3kbits/s speed=0.00845x elapsed=0:02:29.14    \nframe=   66 fps=0.4 q=46.7 size=       0KiB time=00:00:01.28 bitrate=   0.3kbits/s speed=0.00855x elapsed=0:02:29.68    \nframe=   66 fps=0.4 q=46.7 size=       0KiB time=00:00:01.28 bitrate=   0.3kbits/s speed=0.00852x elapsed=0:02:30.24    \nframe=   66 fps=0.4 q=46.7 size=       0KiB time=00:00:01.28 bitrate=   0.3kbits/s speed=0.00849x elapsed=0:02:30.78    \nframe=   66 fps=0.4 q=46.7 size=       0KiB time=00:00:01.28 bitrate=   0.3kbits/s speed=0.00845x elapsed=0:02:31.43    \nframe=   66 fps=0.4 q=46.7 size=       0KiB time=00:00:01.28 bitrate=   0.3kbits/s speed=0.00842x elapsed=0:02:32.08    \nframe=   66 fps=0.4 q=46.7 size=       0KiB time=00:00:01.28 bitrate=   0.3kbits/s speed=0.00838x elapsed=0:02:32.67    \nframe=   67 fps=0.4 q=49.1 size=       0KiB time=00:00:01.30 bitrate=   0.3kbits/s speed=0.00848x elapsed=0:02:33.23    \nframe=   67 fps=0.4 q=49.1 size=       0KiB time=00:00:01.30 bitrate=   0.3kbits/s speed=0.00845x elapsed=0:02:33.78    \nframe=   67 fps=0.4 q=49.1 size=       0KiB time=00:00:01.30 bitrate=   0.3kbits/s speed=0.00842x elapsed=0:02:34.32    \nframe=   67 fps=0.4 q=49.1 size=       0KiB time=00:00:01.30 bitrate=   0.3kbits/s speed=0.00839x elapsed=0:02:34.85    \nframe=   67 fps=0.4 q=49.1 size=       0KiB time=00:00:01.30 bitrate=   0.3kbits/s speed=0.00836x elapsed=0:02:35.44    \nframe=   67 fps=0.4 q=49.1 size=       0KiB time=00:00:01.30 bitrate=   0.3kbits/s speed=0.00833x elapsed=0:02:36.00    \nframe=   67 fps=0.4 q=49.1 size=       0KiB time=00:00:01.30 bitrate=   0.3kbits/s speed=0.0083x elapsed=0:02:36.54    \nframe=   67 fps=0.4 q=49.1 size=       0KiB time=00:00:01.30 bitrate=   0.3kbits/s speed=0.00827x elapsed=0:02:37.15    \nframe=   67 fps=0.4 q=49.1 size=       0KiB time=00:00:01.30 bitrate=   0.3kbits/s speed=0.00824x elapsed=0:02:37.70    \nframe=   67 fps=0.4 q=49.1 size=       0KiB time=00:00:01.30 bitrate=   0.3kbits/s speed=0.00821x elapsed=0:02:38.27    \nframe=   67 fps=0.4 q=49.1 size=       0KiB time=00:00:01.30 bitrate=   0.3kbits/s speed=0.00818x elapsed=0:02:38.83    \nframe=   67 fps=0.4 q=49.1 size=       0KiB time=00:00:01.30 bitrate=   0.3kbits/s speed=0.00816x elapsed=0:02:39.38    \nframe=   67 fps=0.4 q=49.1 size=       0KiB time=00:00:01.30 bitrate=   0.3kbits/s speed=0.00813x elapsed=0:02:39.94    \nframe=   67 fps=0.4 q=49.1 size=       0KiB time=00:00:01.30 bitrate=   0.3kbits/s speed=0.0081x elapsed=0:02:40.52    \nframe=   67 fps=0.4 q=49.1 size=       0KiB time=00:00:01.30 bitrate=   0.3kbits/s speed=0.00807x elapsed=0:02:41.07    \nframe=   67 fps=0.4 q=49.1 size=       0KiB time=00:00:01.30 bitrate=   0.3kbits/s speed=0.00804x elapsed=0:02:41.67    \nframe=   67 fps=0.4 q=49.1 size=       0KiB time=00:00:01.30 bitrate=   0.3kbits/s speed=0.00801x elapsed=0:02:42.23    \nframe=   68 fps=0.4 q=50.8 size=       0KiB time=00:00:01.32 bitrate=   0.3kbits/s speed=0.00811x elapsed=0:02:42.78    \nframe=   68 fps=0.4 q=50.8 size=       0KiB time=00:00:01.32 bitrate=   0.3kbits/s speed=0.00808x elapsed=0:02:43.35    \nframe=   68 fps=0.4 q=50.8 size=       0KiB time=00:00:01.32 bitrate=   0.3kbits/s speed=0.00805x elapsed=0:02:43.88    \nframe=   68 fps=0.4 q=50.8 size=       0KiB time=00:00:01.32 bitrate=   0.3kbits/s speed=0.00803x elapsed=0:02:44.46    \nframe=   68 fps=0.4 q=50.8 size=       0KiB time=00:00:01.32 bitrate=   0.3kbits/s speed=0.008x elapsed=0:02:45.02    \nframe=   68 fps=0.4 q=50.8 size=       0KiB time=00:00:01.32 bitrate=   0.3kbits/s speed=0.00797x elapsed=0:02:45.55    \nframe=   69 fps=0.4 q=50.8 size=       0KiB time=00:00:01.34 bitrate=   0.3kbits/s speed=0.00807x elapsed=0:02:46.08    \nframe=   69 fps=0.4 q=50.8 size=       0KiB time=00:00:01.34 bitrate=   0.3kbits/s speed=0.00804x elapsed=0:02:46.65    \nframe=   69 fps=0.4 q=50.8 size=       0KiB time=00:00:01.34 bitrate=   0.3kbits/s speed=0.00801x elapsed=0:02:47.22    \nframe=   69 fps=0.4 q=50.8 size=       0KiB time=00:00:01.34 bitrate=   0.3kbits/s speed=0.00799x elapsed=0:02:47.76    \nframe=   69 fps=0.4 q=50.8 size=       0KiB time=00:00:01.34 bitrate=   0.3kbits/s speed=0.00796x elapsed=0:02:48.31    \nframe=   69 fps=0.4 q=50.8 size=       0KiB time=00:00:01.34 bitrate=   0.3kbits/s speed=0.00794x elapsed=0:02:48.84    \nframe=   69 fps=0.4 q=50.8 size=       0KiB time=00:00:01.34 bitrate=   0.3kbits/s speed=0.00791x elapsed=0:02:49.37    \nframe=   69 fps=0.4 q=50.8 size=       0KiB time=00:00:01.34 bitrate=   0.3kbits/s speed=0.00788x elapsed=0:02:49.94    \nframe=   69 fps=0.4 q=50.8 size=       0KiB time=00:00:01.34 bitrate=   0.3kbits/s speed=0.00786x elapsed=0:02:50.51    \nframe=   69 fps=0.4 q=50.8 size=       0KiB time=00:00:01.34 bitrate=   0.3kbits/s speed=0.00783x elapsed=0:02:51.09    \nframe=   70 fps=0.4 q=46.7 size=       0KiB time=00:00:01.36 bitrate=   0.3kbits/s speed=0.00792x elapsed=0:02:51.66    \nframe=   70 fps=0.4 q=46.7 size=       0KiB time=00:00:01.36 bitrate=   0.3kbits/s speed=0.00789x elapsed=0:02:52.27    \nframe=   70 fps=0.4 q=46.7 size=       0KiB time=00:00:01.36 bitrate=   0.3kbits/s speed=0.00787x elapsed=0:02:52.82    \nframe=   70 fps=0.4 q=46.7 size=       0KiB time=00:00:01.36 bitrate=   0.3kbits/s speed=0.00784x elapsed=0:02:53.40    \nframe=   70 fps=0.4 q=46.7 size=       0KiB time=00:00:01.36 bitrate=   0.3kbits/s speed=0.00782x elapsed=0:02:53.96    \nframe=   71 fps=0.4 q=49.4 size=       0KiB time=00:00:01.38 bitrate=   0.3kbits/s speed=0.00791x elapsed=0:02:54.52    \nframe=   71 fps=0.4 q=49.4 size=       0KiB time=00:00:01.38 bitrate=   0.3kbits/s speed=0.00788x elapsed=0:02:55.08    \nframe=   71 fps=0.4 q=49.4 size=       0KiB time=00:00:01.38 bitrate=   0.3kbits/s speed=0.00786x elapsed=0:02:55.63    \nframe=   71 fps=0.4 q=49.4 size=       0KiB time=00:00:01.38 bitrate=   0.3kbits/s speed=0.00783x elapsed=0:02:56.16    \nframe=   71 fps=0.4 q=49.4 size=       0KiB time=00:00:01.38 bitrate=   0.3kbits/s speed=0.00781x elapsed=0:02:56.70    \nframe=   71 fps=0.4 q=49.4 size=       0KiB time=00:00:01.38 bitrate=   0.3kbits/s speed=0.00779x elapsed=0:02:57.21    \nframe=   71 fps=0.4 q=49.4 size=       0KiB time=00:00:01.38 bitrate=   0.3kbits/s speed=0.00776x elapsed=0:02:57.75    \nframe=   71 fps=0.4 q=49.4 size=       0KiB time=00:00:01.38 bitrate=   0.3kbits/s speed=0.00774x elapsed=0:02:58.30    \nframe=   71 fps=0.4 q=49.4 size=       0KiB time=00:00:01.38 bitrate=   0.3kbits/s speed=0.00772x elapsed=0:02:58.86    \nframe=   71 fps=0.4 q=49.4 size=       0KiB time=00:00:01.38 bitrate=   0.3kbits/s speed=0.00769x elapsed=0:02:59.44    \nframe=   71 fps=0.4 q=49.4 size=       0KiB time=00:00:01.38 bitrate=   0.3kbits/s speed=0.00766x elapsed=0:03:00.04    \nframe=   71 fps=0.4 q=49.4 size=       0KiB time=00:00:01.38 bitrate=   0.3kbits/s speed=0.00764x elapsed=0:03:00.70    \nframe=   71 fps=0.4 q=49.4 size=       0KiB time=00:00:01.38 bitrate=   0.3kbits/s speed=0.00761x elapsed=0:03:01.35    \nframe=   71 fps=0.4 q=49.4 size=       0KiB time=00:00:01.38 bitrate=   0.3kbits/s speed=0.00758x elapsed=0:03:01.98    \nframe=   71 fps=0.4 q=49.4 size=       0KiB time=00:00:01.38 bitrate=   0.3kbits/s speed=0.00756x elapsed=0:03:02.58    \nframe=   71 fps=0.4 q=49.4 size=       0KiB time=00:00:01.38 bitrate=   0.3kbits/s speed=0.00753x elapsed=0:03:03.24    \nframe=   71 fps=0.4 q=49.4 size=       0KiB time=00:00:01.38 bitrate=   0.3kbits/s speed=0.0075x elapsed=0:03:03.90    \nframe=   71 fps=0.4 q=49.4 size=       0KiB time=00:00:01.38 bitrate=   0.3kbits/s speed=0.00748x elapsed=0:03:04.51    \nframe=   71 fps=0.4 q=49.4 size=       0KiB time=00:00:01.38 bitrate=   0.3kbits/s speed=0.00745x elapsed=0:03:05.13    \nframe=   71 fps=0.4 q=49.4 size=       0KiB time=00:00:01.38 bitrate=   0.3kbits/s speed=0.00743x elapsed=0:03:05.74    \nframe=   72 fps=0.4 q=50.8 size=       0KiB time=00:00:01.40 bitrate=   0.3kbits/s speed=0.00751x elapsed=0:03:06.34    \nframe=   72 fps=0.4 q=50.8 size=       0KiB time=00:00:01.40 bitrate=   0.3kbits/s speed=0.00749x elapsed=0:03:06.92    \nframe=   72 fps=0.4 q=50.8 size=       0KiB time=00:00:01.40 bitrate=   0.3kbits/s speed=0.00747x elapsed=0:03:07.45    \nframe=   72 fps=0.4 q=50.8 size=       0KiB time=00:00:01.40 bitrate=   0.3kbits/s speed=0.00745x elapsed=0:03:08.00    \nframe=   73 fps=0.4 q=50.8 size=       0KiB time=00:00:01.42 bitrate=   0.2kbits/s speed=0.00753x elapsed=0:03:08.55    \nframe=   73 fps=0.4 q=50.8 size=       0KiB time=00:00:01.42 bitrate=   0.2kbits/s speed=0.00751x elapsed=0:03:09.10    \nframe=   74 fps=0.4 q=46.7 size=       0KiB time=00:00:01.44 bitrate=   0.2kbits/s speed=0.00759x elapsed=0:03:09.61    \nframe=   74 fps=0.4 q=46.7 size=       0KiB time=00:00:01.44 bitrate=   0.2kbits/s speed=0.00757x elapsed=0:03:10.14    \nframe=   74 fps=0.4 q=46.7 size=       0KiB time=00:00:01.44 bitrate=   0.2kbits/s speed=0.00755x elapsed=0:03:10.66    \nframe=   75 fps=0.4 q=49.4 size=       0KiB time=00:00:01.46 bitrate=   0.2kbits/s speed=0.00764x elapsed=0:03:11.18    \nframe=   75 fps=0.4 q=49.4 size=       0KiB time=00:00:01.46 bitrate=   0.2kbits/s speed=0.00762x elapsed=0:03:11.71    \nframe=   75 fps=0.4 q=49.4 size=       0KiB time=00:00:01.46 bitrate=   0.2kbits/s speed=0.00759x elapsed=0:03:12.23    \nframe=   76 fps=0.4 q=50.8 size=       0KiB time=00:00:01.48 bitrate=   0.2kbits/s speed=0.00768x elapsed=0:03:12.74    \nframe=   76 fps=0.4 q=50.8 size=       0KiB time=00:00:01.48 bitrate=   0.2kbits/s speed=0.00766x elapsed=0:03:13.26    \nframe=   76 fps=0.4 q=50.8 size=       0KiB time=00:00:01.48 bitrate=   0.2kbits/s speed=0.00764x elapsed=0:03:13.81    \nframe=   77 fps=0.4 q=50.9 size=       0KiB time=00:00:01.50 bitrate=   0.2kbits/s speed=0.00772x elapsed=0:03:14.33    \nframe=   78 fps=0.4 q=46.6 size=       0KiB time=00:00:01.52 bitrate=   0.2kbits/s speed=0.0078x elapsed=0:03:14.86    \nframe=   79 fps=0.4 q=49.4 size=       0KiB time=00:00:01.54 bitrate=   0.2kbits/s speed=0.00788x elapsed=0:03:15.40    \nframe=   79 fps=0.4 q=49.4 size=       0KiB time=00:00:01.54 bitrate=   0.2kbits/s speed=0.00786x elapsed=0:03:15.92    \nframe=   79 fps=0.4 q=49.4 size=       0KiB time=00:00:01.54 bitrate=   0.2kbits/s speed=0.00784x elapsed=0:03:16.44    \nframe=   80 fps=0.4 q=50.9 size=       0KiB time=00:00:01.56 bitrate=   0.2kbits/s speed=0.00792x elapsed=0:03:16.97    \nframe=   80 fps=0.4 q=50.9 size=       0KiB time=00:00:01.56 bitrate=   0.2kbits/s speed=0.0079x elapsed=0:03:17.50    \nframe=   81 fps=0.4 q=50.7 size=       0KiB time=00:00:01.58 bitrate=   0.2kbits/s speed=0.00798x elapsed=0:03:18.04    \nframe=   81 fps=0.4 q=50.7 size=       0KiB time=00:00:01.58 bitrate=   0.2kbits/s speed=0.00796x elapsed=0:03:18.59    \nframe=   82 fps=0.4 q=46.3 size=       0KiB time=00:00:01.60 bitrate=   0.2kbits/s speed=0.00804x elapsed=0:03:19.11    \nframe=   83 fps=0.4 q=49.3 size=       0KiB time=00:00:01.62 bitrate=   0.2kbits/s speed=0.00811x elapsed=0:03:19.64    \nframe=   83 fps=0.4 q=49.3 size=       0KiB time=00:00:01.62 bitrate=   0.2kbits/s speed=0.00809x elapsed=0:03:20.16    \nframe=   83 fps=0.4 q=49.3 size=       0KiB time=00:00:01.62 bitrate=   0.2kbits/s speed=0.00807x elapsed=0:03:20.66    \nframe=   84 fps=0.4 q=50.7 size=       0KiB time=00:00:01.64 bitrate=   0.2kbits/s speed=0.00815x elapsed=0:03:21.19    \nframe=   84 fps=0.4 q=50.7 size=       0KiB time=00:00:01.64 bitrate=   0.2kbits/s speed=0.00813x elapsed=0:03:21.74    \nframe=   85 fps=0.4 q=50.9 size=       0KiB time=00:00:01.66 bitrate=   0.2kbits/s speed=0.00821x elapsed=0:03:22.26    \nframe=   85 fps=0.4 q=50.9 size=       0KiB time=00:00:01.66 bitrate=   0.2kbits/s speed=0.00818x elapsed=0:03:22.85    \nframe=   85 fps=0.4 q=50.9 size=       0KiB time=00:00:01.66 bitrate=   0.2kbits/s speed=0.00816x elapsed=0:03:23.37    \nframe=   85 fps=0.4 q=50.9 size=       0KiB time=00:00:01.66 bitrate=   0.2kbits/s speed=0.00814x elapsed=0:03:23.94    \nframe=   85 fps=0.4 q=50.9 size=       0KiB time=00:00:01.66 bitrate=   0.2kbits/s speed=0.00812x elapsed=0:03:24.51    \nframe=   85 fps=0.4 q=50.9 size=       0KiB time=00:00:01.66 bitrate=   0.2kbits/s speed=0.00809x elapsed=0:03:25.16    \nframe=   85 fps=0.4 q=50.9 size=       0KiB time=00:00:01.66 bitrate=   0.2kbits/s speed=0.00807x elapsed=0:03:25.80    \nframe=   85 fps=0.4 q=50.9 size=       0KiB time=00:00:01.66 bitrate=   0.2kbits/s speed=0.00804x elapsed=0:03:26.43    \nframe=   85 fps=0.4 q=50.9 size=       0KiB time=00:00:01.66 bitrate=   0.2kbits/s speed=0.00802x elapsed=0:03:26.95    \nframe=   86 fps=0.4 q=46.2 size=       0KiB time=00:00:01.68 bitrate=   0.2kbits/s speed=0.0081x elapsed=0:03:27.49    \nframe=   86 fps=0.4 q=46.2 size=       0KiB time=00:00:01.68 bitrate=   0.2kbits/s speed=0.00808x elapsed=0:03:28.02    \nframe=   86 fps=0.4 q=46.2 size=       0KiB time=00:00:01.68 bitrate=   0.2kbits/s speed=0.00806x elapsed=0:03:28.55    \nframe=   87 fps=0.4 q=49.5 size=       0KiB time=00:00:01.70 bitrate=   0.2kbits/s speed=0.00813x elapsed=0:03:29.11    \nframe=   87 fps=0.4 q=49.5 size=       0KiB time=00:00:01.70 bitrate=   0.2kbits/s speed=0.00811x elapsed=0:03:29.63    \nframe=   87 fps=0.4 q=49.5 size=       0KiB time=00:00:01.70 bitrate=   0.2kbits/s speed=0.00809x elapsed=0:03:30.18    \nframe=   87 fps=0.4 q=49.5 size=       0KiB time=00:00:01.70 bitrate=   0.2kbits/s speed=0.00807x elapsed=0:03:30.73    \nframe=   87 fps=0.4 q=49.5 size=       0KiB time=00:00:01.70 bitrate=   0.2kbits/s speed=0.00805x elapsed=0:03:31.30    \nframe=   87 fps=0.4 q=49.5 size=       0KiB time=00:00:01.70 bitrate=   0.2kbits/s speed=0.00803x elapsed=0:03:31.83    \nframe=   87 fps=0.4 q=49.5 size=       0KiB time=00:00:01.70 bitrate=   0.2kbits/s speed=0.008x elapsed=0:03:32.38    \nframe=   87 fps=0.4 q=49.5 size=       0KiB time=00:00:01.70 bitrate=   0.2kbits/s speed=0.00798x elapsed=0:03:32.95    \nframe=   87 fps=0.4 q=49.5 size=       0KiB time=00:00:01.70 bitrate=   0.2kbits/s speed=0.00796x elapsed=0:03:33.53    \nframe=   87 fps=0.4 q=49.5 size=       0KiB time=00:00:01.70 bitrate=   0.2kbits/s speed=0.00794x elapsed=0:03:34.12    \nframe=   87 fps=0.4 q=49.5 size=       0KiB time=00:00:01.70 bitrate=   0.2kbits/s speed=0.00792x elapsed=0:03:34.68    \nframe=   87 fps=0.4 q=49.5 size=       0KiB time=00:00:01.70 bitrate=   0.2kbits/s speed=0.0079x elapsed=0:03:35.24    \nframe=   87 fps=0.4 q=49.5 size=       0KiB time=00:00:01.70 bitrate=   0.2kbits/s speed=0.00788x elapsed=0:03:35.85    \nframe=   87 fps=0.4 q=49.5 size=       0KiB time=00:00:01.70 bitrate=   0.2kbits/s speed=0.00785x elapsed=0:03:36.45    \nframe=   87 fps=0.4 q=49.5 size=       0KiB time=00:00:01.70 bitrate=   0.2kbits/s speed=0.00783x elapsed=0:03:37.05    \nframe=   88 fps=0.4 q=50.8 size=       0KiB time=00:00:01.72 bitrate=   0.2kbits/s speed=0.0079x elapsed=0:03:37.60    \nframe=   88 fps=0.4 q=50.8 size=       0KiB time=00:00:01.72 bitrate=   0.2kbits/s speed=0.00788x elapsed=0:03:38.18    \nframe=   88 fps=0.4 q=50.8 size=       0KiB time=00:00:01.72 bitrate=   0.2kbits/s speed=0.00786x elapsed=0:03:38.69    \nframe=   88 fps=0.4 q=50.8 size=       0KiB time=00:00:01.72 bitrate=   0.2kbits/s speed=0.00785x elapsed=0:03:39.23    \nframe=   89 fps=0.4 q=50.8 size=       0KiB time=00:00:01.74 bitrate=   0.2kbits/s speed=0.00792x elapsed=0:03:39.81    \nframe=   89 fps=0.4 q=50.8 size=       0KiB time=00:00:01.74 bitrate=   0.2kbits/s speed=0.00789x elapsed=0:03:40.43    \nframe=   89 fps=0.4 q=50.8 size=       0KiB time=00:00:01.74 bitrate=   0.2kbits/s speed=0.00787x elapsed=0:03:41.00    \nframe=   89 fps=0.4 q=50.8 size=       0KiB time=00:00:01.74 bitrate=   0.2kbits/s speed=0.00785x elapsed=0:03:41.56    \nframe=   89 fps=0.4 q=50.8 size=       0KiB time=00:00:01.74 bitrate=   0.2kbits/s speed=0.00783x elapsed=0:03:42.11    \nframe=   89 fps=0.4 q=50.8 size=       0KiB time=00:00:01.74 bitrate=   0.2kbits/s speed=0.00781x elapsed=0:03:42.66    \nframe=   90 fps=0.4 q=46.0 size=       0KiB time=00:00:01.76 bitrate=   0.2kbits/s speed=0.00789x elapsed=0:03:43.20    \nframe=   90 fps=0.4 q=46.0 size=       0KiB time=00:00:01.76 bitrate=   0.2kbits/s speed=0.00786x elapsed=0:03:43.83    \nframe=   90 fps=0.4 q=46.0 size=       0KiB time=00:00:01.76 bitrate=   0.2kbits/s speed=0.00784x elapsed=0:03:44.38    \nframe=   90 fps=0.4 q=46.0 size=       0KiB time=00:00:01.76 bitrate=   0.2kbits/s speed=0.00782x elapsed=0:03:45.02    \nframe=   91 fps=0.4 q=49.1 size=       0KiB time=00:00:01.78 bitrate=   0.2kbits/s speed=0.00789x elapsed=0:03:45.57    \nframe=   91 fps=0.4 q=49.1 size=       0KiB time=00:00:01.78 bitrate=   0.2kbits/s speed=0.00787x elapsed=0:03:46.16    \nframe=   91 fps=0.4 q=49.1 size=       0KiB time=00:00:01.78 bitrate=   0.2kbits/s speed=0.00785x elapsed=0:03:46.72    \nframe=   91 fps=0.4 q=49.1 size=       0KiB time=00:00:01.78 bitrate=   0.2kbits/s speed=0.00783x elapsed=0:03:47.31    \nframe=   91 fps=0.4 q=49.1 size=       0KiB time=00:00:01.78 bitrate=   0.2kbits/s speed=0.00781x elapsed=0:03:47.90    \nframe=   91 fps=0.4 q=49.1 size=       0KiB time=00:00:01.78 bitrate=   0.2kbits/s speed=0.00779x elapsed=0:03:48.47    \nframe=   91 fps=0.4 q=49.1 size=       0KiB time=00:00:01.78 bitrate=   0.2kbits/s speed=0.00777x elapsed=0:03:49.06    \nframe=   91 fps=0.4 q=49.1 size=       0KiB time=00:00:01.78 bitrate=   0.2kbits/s speed=0.00775x elapsed=0:03:49.59    \nframe=   91 fps=0.4 q=49.1 size=       0KiB time=00:00:01.78 bitrate=   0.2kbits/s speed=0.00773x elapsed=0:03:50.21    \nframe=   91 fps=0.4 q=49.1 size=       0KiB time=00:00:01.78 bitrate=   0.2kbits/s speed=0.00771x elapsed=0:03:50.82    \nframe=   91 fps=0.4 q=49.1 size=       0KiB time=00:00:01.78 bitrate=   0.2kbits/s speed=0.00769x elapsed=0:03:51.37    \nframe=   91 fps=0.4 q=49.1 size=       0KiB time=00:00:01.78 bitrate=   0.2kbits/s speed=0.00767x elapsed=0:03:51.94    \nframe=   92 fps=0.4 q=50.8 size=       0KiB time=00:00:01.80 bitrate=   0.2kbits/s speed=0.00774x elapsed=0:03:52.49    \nframe=   92 fps=0.4 q=50.8 size=       0KiB time=00:00:01.80 bitrate=   0.2kbits/s speed=0.00772x elapsed=0:03:53.04    \nframe=   92 fps=0.4 q=50.8 size=       0KiB time=00:00:01.80 bitrate=   0.2kbits/s speed=0.00771x elapsed=0:03:53.59    \nframe=   92 fps=0.4 q=50.8 size=       0KiB time=00:00:01.80 bitrate=   0.2kbits/s speed=0.00769x elapsed=0:03:54.15    \nframe=   92 fps=0.4 q=50.8 size=       0KiB time=00:00:01.80 bitrate=   0.2kbits/s speed=0.00767x elapsed=0:03:54.67    \nframe=   92 fps=0.4 q=50.8 size=       0KiB time=00:00:01.80 bitrate=   0.2kbits/s speed=0.00765x elapsed=0:03:55.21    \nframe=   92 fps=0.4 q=50.8 size=       0KiB time=00:00:01.80 bitrate=   0.2kbits/s speed=0.00763x elapsed=0:03:55.77    \nframe=   92 fps=0.4 q=50.8 size=       0KiB time=00:00:01.80 bitrate=   0.2kbits/s speed=0.00762x elapsed=0:03:56.31    \nframe=   92 fps=0.4 q=50.8 size=       0KiB time=00:00:01.80 bitrate=   0.2kbits/s speed=0.0076x elapsed=0:03:56.88    \nframe=   92 fps=0.4 q=50.8 size=       0KiB time=00:00:01.80 bitrate=   0.2kbits/s speed=0.00758x elapsed=0:03:57.41    \nframe=   92 fps=0.4 q=50.8 size=       0KiB time=00:00:01.80 bitrate=   0.2kbits/s speed=0.00756x elapsed=0:03:57.94    \nframe=   92 fps=0.4 q=50.8 size=       0KiB time=00:00:01.80 bitrate=   0.2kbits/s speed=0.00755x elapsed=0:03:58.53    \nframe=   93 fps=0.4 q=50.8 size=       0KiB time=00:00:01.82 bitrate=   0.2kbits/s speed=0.00761x elapsed=0:03:59.06    \nframe=   93 fps=0.4 q=50.8 size=       0KiB time=00:00:01.82 bitrate=   0.2kbits/s speed=0.00759x elapsed=0:03:59.71    \nframe=   93 fps=0.4 q=50.8 size=       0KiB time=00:00:01.82 bitrate=   0.2kbits/s speed=0.00757x elapsed=0:04:00.28    \nframe=   93 fps=0.4 q=50.8 size=       0KiB time=00:00:01.82 bitrate=   0.2kbits/s speed=0.00756x elapsed=0:04:00.82    \nframe=   93 fps=0.4 q=50.8 size=       0KiB time=00:00:01.82 bitrate=   0.2kbits/s speed=0.00754x elapsed=0:04:01.41    \nframe=   93 fps=0.4 q=50.8 size=       0KiB time=00:00:01.82 bitrate=   0.2kbits/s speed=0.00752x elapsed=0:04:01.97    \nframe=   93 fps=0.4 q=50.8 size=       0KiB time=00:00:01.82 bitrate=   0.2kbits/s speed=0.00751x elapsed=0:04:02.49    \nframe=   94 fps=0.4 q=45.7 size=       0KiB time=00:00:01.84 bitrate=   0.2kbits/s speed=0.00757x elapsed=0:04:03.06    \nframe=   94 fps=0.4 q=45.7 size=       0KiB time=00:00:01.84 bitrate=   0.2kbits/s speed=0.00755x elapsed=0:04:03.63    \nframe=   94 fps=0.4 q=45.7 size=       0KiB time=00:00:01.84 bitrate=   0.2kbits/s speed=0.00754x elapsed=0:04:04.17    \nframe=   94 fps=0.4 q=45.7 size=       0KiB time=00:00:01.84 bitrate=   0.2kbits/s speed=0.00752x elapsed=0:04:04.74    \nframe=   94 fps=0.4 q=45.7 size=       0KiB time=00:00:01.84 bitrate=   0.2kbits/s speed=0.0075x elapsed=0:04:05.32    \nframe=   95 fps=0.4 q=49.5 size=       0KiB time=00:00:01.86 bitrate=   0.2kbits/s speed=0.00757x elapsed=0:04:05.85    \nframe=   96 fps=0.4 q=50.7 size=       0KiB time=00:00:01.88 bitrate=   0.2kbits/s speed=0.00763x elapsed=0:04:06.41    \nframe=   96 fps=0.4 q=50.7 size=       0KiB time=00:00:01.88 bitrate=   0.2kbits/s speed=0.00761x elapsed=0:04:06.93    \nframe=   96 fps=0.4 q=50.7 size=       0KiB time=00:00:01.88 bitrate=   0.2kbits/s speed=0.0076x elapsed=0:04:07.49    \nframe=   96 fps=0.4 q=50.7 size=       0KiB time=00:00:01.88 bitrate=   0.2kbits/s speed=0.00758x elapsed=0:04:08.05    \nframe=   96 fps=0.4 q=50.7 size=       0KiB time=00:00:01.88 bitrate=   0.2kbits/s speed=0.00756x elapsed=0:04:08.60    \nframe=   96 fps=0.4 q=50.7 size=       0KiB time=00:00:01.88 bitrate=   0.2kbits/s speed=0.00754x elapsed=0:04:09.20    \nframe=   96 fps=0.4 q=50.7 size=       0KiB time=00:00:01.88 bitrate=   0.2kbits/s speed=0.00753x elapsed=0:04:09.75    \nframe=   96 fps=0.4 q=50.7 size=       0KiB time=00:00:01.88 bitrate=   0.2kbits/s speed=0.00751x elapsed=0:04:10.36    \nframe=   96 fps=0.4 q=50.7 size=       0KiB time=00:00:01.88 bitrate=   0.2kbits/s speed=0.00749x elapsed=0:04:10.99    \nframe=   96 fps=0.4 q=50.7 size=       0KiB time=00:00:01.88 bitrate=   0.2kbits/s speed=0.00747x elapsed=0:04:11.59    \nframe=   97 fps=0.4 q=50.8 size=       0KiB time=00:00:01.90 bitrate=   0.2kbits/s speed=0.00753x elapsed=0:04:12.16    \nframe=   97 fps=0.4 q=50.8 size=       0KiB time=00:00:01.90 bitrate=   0.2kbits/s speed=0.00752x elapsed=0:04:12.71    \nframe=   97 fps=0.4 q=50.8 size=       0KiB time=00:00:01.90 bitrate=   0.2kbits/s speed=0.0075x elapsed=0:04:13.25    \nframe=   97 fps=0.4 q=50.8 size=       0KiB time=00:00:01.90 bitrate=   0.2kbits/s speed=0.00749x elapsed=0:04:13.83    \nframe=   97 fps=0.4 q=50.8 size=       0KiB time=00:00:01.90 bitrate=   0.2kbits/s speed=0.00747x elapsed=0:04:14.42    \nframe=   97 fps=0.4 q=50.8 size=       0KiB time=00:00:01.90 bitrate=   0.2kbits/s speed=0.00745x elapsed=0:04:15.05    \nframe=   97 fps=0.4 q=50.8 size=       0KiB time=00:00:01.90 bitrate=   0.2kbits/s speed=0.00743x elapsed=0:04:15.59    \nframe=   99 fps=0.4 q=45.3 size=       0KiB time=00:00:01.92 bitrate=   0.2kbits/s speed=0.0075x elapsed=0:04:16.13    \nframe=  100 fps=0.4 q=48.1 size=       0KiB time=00:00:01.96 bitrate=   0.2kbits/s speed=0.00764x elapsed=0:04:16.65    \nframe=  100 fps=0.4 q=48.1 size=       0KiB time=00:00:01.96 bitrate=   0.2kbits/s speed=0.00762x elapsed=0:04:17.19    \nframe=  101 fps=0.4 q=51.0 size=       0KiB time=00:00:01.98 bitrate=   0.2kbits/s speed=0.00768x elapsed=0:04:17.72    \nframe=  101 fps=0.4 q=51.0 size=       0KiB time=00:00:01.98 bitrate=   0.2kbits/s speed=0.00767x elapsed=0:04:18.24    \nframe=  102 fps=0.4 q=50.7 size=       0KiB time=00:00:02.00 bitrate=   0.2kbits/s speed=0.00773x elapsed=0:04:18.79    \nframe=  103 fps=0.4 q=50.9 size=       0KiB time=00:00:02.02 bitrate=   0.2kbits/s speed=0.00779x elapsed=0:04:19.31    \nframe=  103 fps=0.4 q=50.9 size=       0KiB time=00:00:02.02 bitrate=   0.2kbits/s speed=0.00777x elapsed=0:04:19.83    \nframe=  103 fps=0.4 q=50.9 size=       0KiB time=00:00:02.02 bitrate=   0.2kbits/s speed=0.00776x elapsed=0:04:20.35    \nframe=  104 fps=0.4 q=45.7 size=       0KiB time=00:00:02.04 bitrate=   0.2kbits/s speed=0.00782x elapsed=0:04:20.87    \nframe=  104 fps=0.4 q=45.7 size=       0KiB time=00:00:02.04 bitrate=   0.2kbits/s speed=0.0078x elapsed=0:04:21.41    \nframe=  104 fps=0.4 q=45.7 size=       0KiB time=00:00:02.04 bitrate=   0.2kbits/s speed=0.00779x elapsed=0:04:21.95    \nframe=  105 fps=0.4 q=49.8 size=       0KiB time=00:00:02.06 bitrate=   0.2kbits/s speed=0.00785x elapsed=0:04:22.46    \nframe=  106 fps=0.4 q=50.8 size=       0KiB time=00:00:02.08 bitrate=   0.2kbits/s speed=0.00791x elapsed=0:04:22.98    \nframe=  107 fps=0.4 q=50.7 size=       0KiB time=00:00:02.10 bitrate=   0.2kbits/s speed=0.00797x elapsed=0:04:23.51    \nframe=  107 fps=0.4 q=50.7 size=       0KiB time=00:00:02.10 bitrate=   0.2kbits/s speed=0.00795x elapsed=0:04:24.03    \nframe=  108 fps=0.4 q=51.0 size=       0KiB time=00:00:02.12 bitrate=   0.2kbits/s speed=0.00801x elapsed=0:04:24.55    \nframe=  109 fps=0.4 q=45.3 size=       0KiB time=00:00:02.14 bitrate=   0.2kbits/s speed=0.00807x elapsed=0:04:25.08    \nframe=  109 fps=0.4 q=45.3 size=       0KiB time=00:00:02.14 bitrate=   0.2kbits/s speed=0.00806x elapsed=0:04:25.61    \nframe=  110 fps=0.4 q=49.4 size=     256KiB time=00:00:02.16 bitrate= 971.1kbits/s speed=0.00812x elapsed=0:04:26.14    \nframe=  110 fps=0.4 q=49.4 size=     256KiB time=00:00:02.16 bitrate= 971.1kbits/s speed=0.0081x elapsed=0:04:26.67    \nframe=  111 fps=0.4 q=50.8 size=     256KiB time=00:00:02.18 bitrate= 962.2kbits/s speed=0.00816x elapsed=0:04:27.21    \nframe=  111 fps=0.4 q=50.8 size=     256KiB time=00:00:02.18 bitrate= 962.2kbits/s speed=0.00814x elapsed=0:04:27.73    \nframe=  111 fps=0.4 q=50.8 size=     256KiB time=00:00:02.18 bitrate= 962.2kbits/s speed=0.00813x elapsed=0:04:28.25    \nframe=  112 fps=0.4 q=50.7 size=     256KiB time=00:00:02.20 bitrate= 953.4kbits/s speed=0.00819x elapsed=0:04:28.77    \nframe=  112 fps=0.4 q=50.7 size=     256KiB time=00:00:02.20 bitrate= 953.4kbits/s speed=0.00817x elapsed=0:04:29.30    \nframe=  113 fps=0.4 q=45.3 size=     256KiB time=00:00:02.22 bitrate= 944.8kbits/s speed=0.00823x elapsed=0:04:29.84    \nframe=  114 fps=0.4 q=49.3 size=     256KiB time=00:00:02.24 bitrate= 936.4kbits/s speed=0.00828x elapsed=0:04:30.38    \nframe=  114 fps=0.4 q=49.3 size=     256KiB time=00:00:02.24 bitrate= 936.4kbits/s speed=0.00827x elapsed=0:04:30.92    \nframe=  116 fps=0.4 q=50.9 size=     256KiB time=00:00:02.28 bitrate= 920.0kbits/s speed=0.0084x elapsed=0:04:31.44    \nframe=  117 fps=0.4 q=44.9 size=     256KiB time=00:00:02.30 bitrate= 912.0kbits/s speed=0.00846x elapsed=0:04:31.95    \nframe=  117 fps=0.4 q=44.9 size=     256KiB time=00:00:02.30 bitrate= 912.0kbits/s speed=0.00844x elapsed=0:04:32.48    \nframe=  118 fps=0.4 q=49.5 size=     256KiB time=00:00:02.32 bitrate= 904.1kbits/s speed=0.0085x elapsed=0:04:33.00    \nframe=  118 fps=0.4 q=49.5 size=     256KiB time=00:00:02.32 bitrate= 904.1kbits/s speed=0.00848x elapsed=0:04:33.54    \nframe=  120 fps=0.4 q=50.9 size=     256KiB time=00:00:02.36 bitrate= 888.8kbits/s speed=0.00861x elapsed=0:04:34.06    \nframe=  120 fps=0.4 q=50.9 size=     256KiB time=00:00:02.36 bitrate= 888.8kbits/s speed=0.00859x elapsed=0:04:34.60    \nframe=  120 fps=0.4 q=50.9 size=     256KiB time=00:00:02.36 bitrate= 888.8kbits/s speed=0.00858x elapsed=0:04:35.10    \nframe=  120 fps=0.4 q=50.9 size=     256KiB time=00:00:02.36 bitrate= 888.8kbits/s speed=0.00856x elapsed=0:04:35.65    \nframe=  121 fps=0.4 q=45.0 size=     256KiB time=00:00:02.38 bitrate= 881.3kbits/s speed=0.00862x elapsed=0:04:36.21    \nframe=  121 fps=0.4 q=45.0 size=     256KiB time=00:00:02.38 bitrate= 881.3kbits/s speed=0.0086x elapsed=0:04:36.71    \nframe=  122 fps=0.4 q=49.3 size=     256KiB time=00:00:02.40 bitrate= 874.0kbits/s speed=0.00866x elapsed=0:04:37.26    \nframe=  122 fps=0.4 q=49.3 size=     256KiB time=00:00:02.40 bitrate= 874.0kbits/s speed=0.00864x elapsed=0:04:37.81    \nframe=  123 fps=0.4 q=50.8 size=     256KiB time=00:00:02.42 bitrate= 866.7kbits/s speed=0.00869x elapsed=0:04:38.34    \nframe=  123 fps=0.4 q=50.8 size=     256KiB time=00:00:02.42 bitrate= 866.7kbits/s speed=0.00868x elapsed=0:04:38.86    \nframe=  124 fps=0.4 q=50.8 size=     256KiB time=00:00:02.44 bitrate= 859.6kbits/s speed=0.00873x elapsed=0:04:39.39    \nframe=  124 fps=0.4 q=50.8 size=     256KiB time=00:00:02.44 bitrate= 859.6kbits/s speed=0.00872x elapsed=0:04:39.90    \nframe=  125 fps=0.4 q=44.6 size=     256KiB time=00:00:02.46 bitrate= 852.6kbits/s speed=0.00877x elapsed=0:04:40.43    \nframe=  125 fps=0.4 q=44.6 size=     256KiB time=00:00:02.46 bitrate= 852.6kbits/s speed=0.00876x elapsed=0:04:40.96    \nframe=  126 fps=0.4 q=49.3 size=     256KiB time=00:00:02.48 bitrate= 845.8kbits/s speed=0.00881x elapsed=0:04:41.49    \nframe=  127 fps=0.5 q=50.9 size=     256KiB time=00:00:02.50 bitrate= 839.0kbits/s speed=0.00887x elapsed=0:04:42.00    \nframe=  128 fps=0.5 q=50.8 size=     256KiB time=00:00:02.52 bitrate= 832.3kbits/s speed=0.00892x elapsed=0:04:42.52    \nframe=  128 fps=0.5 q=50.8 size=     256KiB time=00:00:02.52 bitrate= 832.3kbits/s speed=0.0089x elapsed=0:04:43.08    \nframe=  129 fps=0.5 q=45.0 size=     256KiB time=00:00:02.54 bitrate= 825.8kbits/s speed=0.00896x elapsed=0:04:43.61    \nframe=  130 fps=0.5 q=49.4 size=     256KiB time=00:00:02.56 bitrate= 819.3kbits/s speed=0.00901x elapsed=0:04:44.15    \nframe=  130 fps=0.5 q=49.4 size=     256KiB time=00:00:02.56 bitrate= 819.3kbits/s speed=0.00899x elapsed=0:04:44.68    \nframe=  131 fps=0.5 q=50.8 size=     256KiB time=00:00:02.58 bitrate= 813.0kbits/s speed=0.00905x elapsed=0:04:45.22    \nframe=  132 fps=0.5 q=50.7 size=     256KiB time=00:00:02.60 bitrate= 806.7kbits/s speed=0.0091x elapsed=0:04:45.74    \nframe=  133 fps=0.5 q=50.8 size=     256KiB time=00:00:02.62 bitrate= 800.6kbits/s speed=0.00915x elapsed=0:04:46.27    \nframe=  133 fps=0.5 q=50.8 size=     256KiB time=00:00:02.62 bitrate= 800.6kbits/s speed=0.00914x elapsed=0:04:46.78    \nframe=  133 fps=0.5 q=50.8 size=     256KiB time=00:00:02.62 bitrate= 800.6kbits/s speed=0.00912x elapsed=0:04:47.31    \nframe=  133 fps=0.5 q=50.8 size=     256KiB time=00:00:02.62 bitrate= 800.6kbits/s speed=0.0091x elapsed=0:04:47.83    \nframe=  134 fps=0.5 q=45.0 size=     256KiB time=00:00:02.64 bitrate= 794.5kbits/s speed=0.00916x elapsed=0:04:48.34    \nframe=  135 fps=0.5 q=49.2 size=     256KiB time=00:00:02.66 bitrate= 788.5kbits/s speed=0.00921x elapsed=0:04:48.86    \nframe=  135 fps=0.5 q=49.2 size=     256KiB time=00:00:02.66 bitrate= 788.5kbits/s speed=0.00919x elapsed=0:04:49.39    \nframe=  136 fps=0.5 q=50.8 size=     256KiB time=00:00:02.68 bitrate= 782.7kbits/s speed=0.00924x elapsed=0:04:49.92    \nframe=  136 fps=0.5 q=50.8 size=     256KiB time=00:00:02.68 bitrate= 782.7kbits/s speed=0.00923x elapsed=0:04:50.47    \nframe=  136 fps=0.5 q=50.8 size=     256KiB time=00:00:02.68 bitrate= 782.7kbits/s speed=0.00921x elapsed=0:04:51.00    \nframe=  137 fps=0.5 q=49.9 size=     256KiB time=00:00:02.70 bitrate= 776.9kbits/s speed=0.00926x elapsed=0:04:51.53    \nframe=  137 fps=0.5 q=49.9 size=     256KiB time=00:00:02.70 bitrate= 776.9kbits/s speed=0.00925x elapsed=0:04:52.04    \nframe=  138 fps=0.5 q=45.0 size=     256KiB time=00:00:02.72 bitrate= 771.1kbits/s speed=0.0093x elapsed=0:04:52.58    \nframe=  138 fps=0.5 q=45.0 size=     256KiB time=00:00:02.72 bitrate= 771.1kbits/s speed=0.00928x elapsed=0:04:53.12    \nframe=  139 fps=0.5 q=49.2 size=     256KiB time=00:00:02.74 bitrate= 765.5kbits/s speed=0.00933x elapsed=0:04:53.62    \nframe=  140 fps=0.5 q=50.0 size=     256KiB time=00:00:02.76 bitrate= 760.0kbits/s speed=0.00938x elapsed=0:04:54.17    \nframe=  140 fps=0.5 q=50.0 size=     256KiB time=00:00:02.76 bitrate= 760.0kbits/s speed=0.00937x elapsed=0:04:54.70    \nframe=  140 fps=0.5 q=50.0 size=     256KiB time=00:00:02.76 bitrate= 760.0kbits/s speed=0.00935x elapsed=0:04:55.25    \nframe=  141 fps=0.5 q=50.0 size=     256KiB time=00:00:02.78 bitrate= 754.5kbits/s speed=0.0094x elapsed=0:04:55.77    \nframe=  141 fps=0.5 q=50.0 size=     256KiB time=00:00:02.78 bitrate= 754.5kbits/s speed=0.00938x elapsed=0:04:56.28    \nframe=  143 fps=0.5 q=48.9 size=     256KiB time=00:00:02.82 bitrate= 743.8kbits/s speed=0.0095x elapsed=0:04:56.82    \nframe=  143 fps=0.5 q=48.9 size=     256KiB time=00:00:02.82 bitrate= 743.8kbits/s speed=0.00948x elapsed=0:04:57.37    \nframe=  143 fps=0.5 q=48.9 size=     256KiB time=00:00:02.82 bitrate= 743.8kbits/s speed=0.00947x elapsed=0:04:57.91    \nframe=  143 fps=0.5 q=48.9 size=     256KiB time=00:00:02.82 bitrate= 743.8kbits/s speed=0.00945x elapsed=0:04:58.47    \nframe=  143 fps=0.5 q=48.9 size=     256KiB time=00:00:02.82 bitrate= 743.8kbits/s speed=0.00943x elapsed=0:04:58.99    \nframe=  145 fps=0.5 q=49.5 size=     256KiB time=00:00:02.86 bitrate= 733.4kbits/s speed=0.00955x elapsed=0:04:59.53    \nframe=  145 fps=0.5 q=49.5 size=     256KiB time=00:00:02.86 bitrate= 733.4kbits/s speed=0.00953x elapsed=0:05:00.04    \nframe=  145 fps=0.5 q=49.5 size=     256KiB time=00:00:02.86 bitrate= 733.4kbits/s speed=0.00952x elapsed=0:05:00.56    \nframe=  145 fps=0.5 q=49.5 size=     256KiB time=00:00:02.86 bitrate= 733.4kbits/s speed=0.0095x elapsed=0:05:01.10    \nframe=  146 fps=0.5 q=49.7 size=     256KiB time=00:00:02.88 bitrate= 728.3kbits/s speed=0.00955x elapsed=0:05:01.64    \nframe=  147 fps=0.5 q=44.6 size=     256KiB time=00:00:02.90 bitrate= 723.3kbits/s speed=0.0096x elapsed=0:05:02.16    \nframe=  148 fps=0.5 q=45.9 size=     256KiB time=00:00:02.92 bitrate= 718.3kbits/s speed=0.00965x elapsed=0:05:02.67    \nframe=  148 fps=0.5 q=45.9 size=     256KiB time=00:00:02.92 bitrate= 718.3kbits/s speed=0.00963x elapsed=0:05:03.19    \nframe=  149 fps=0.5 q=49.8 size=     256KiB time=00:00:02.94 bitrate= 713.4kbits/s speed=0.00968x elapsed=0:05:03.72    \nframe=  149 fps=0.5 q=49.8 size=     256KiB time=00:00:02.94 bitrate= 713.4kbits/s speed=0.00966x elapsed=0:05:04.27    \nframe=  150 fps=0.5 q=49.9 size=     256KiB time=00:00:02.96 bitrate= 708.6kbits/s speed=0.00971x elapsed=0:05:04.78    \nframe=  151 fps=0.5 q=50.8 size=     256KiB time=00:00:02.98 bitrate= 703.9kbits/s speed=0.00976x elapsed=0:05:05.30    \nframe=  151 fps=0.5 q=50.8 size=     256KiB time=00:00:02.98 bitrate= 703.9kbits/s speed=0.00974x elapsed=0:05:05.84    \nframe=  152 fps=0.5 q=45.0 size=     256KiB time=00:00:03.00 bitrate= 699.2kbits/s speed=0.00979x elapsed=0:05:06.40    \nframe=  152 fps=0.5 q=45.0 size=     256KiB time=00:00:03.00 bitrate= 699.2kbits/s speed=0.00977x elapsed=0:05:06.96    \nframe=  153 fps=0.5 q=49.5 size=     256KiB time=00:00:03.02 bitrate= 694.5kbits/s speed=0.00982x elapsed=0:05:07.48    \nframe=  154 fps=0.5 q=50.8 size=     256KiB time=00:00:03.04 bitrate= 690.0kbits/s speed=0.00987x elapsed=0:05:08.00    \nframe=  155 fps=0.5 q=50.8 size=     256KiB time=00:00:03.06 bitrate= 685.5kbits/s speed=0.00992x elapsed=0:05:08.53    \nframe=  156 fps=0.5 q=50.7 size=     256KiB time=00:00:03.08 bitrate= 681.0kbits/s speed=0.00996x elapsed=0:05:09.08    \nframe=  156 fps=0.5 q=50.7 size=     256KiB time=00:00:03.08 bitrate= 681.0kbits/s speed=0.00995x elapsed=0:05:09.64    \nframe=  156 fps=0.5 q=50.7 size=     256KiB time=00:00:03.08 bitrate= 681.0kbits/s speed=0.00993x elapsed=0:05:10.20    \nframe=  158 fps=0.5 q=49.2 size=     256KiB time=00:00:03.12 bitrate= 672.3kbits/s speed=0.01x elapsed=0:05:10.72    \nframe=  159 fps=0.5 q=50.7 size=     256KiB time=00:00:03.14 bitrate= 668.0kbits/s speed=0.0101x elapsed=0:05:11.25    \nframe=  160 fps=0.5 q=50.9 size=     256KiB time=00:00:03.16 bitrate= 663.8kbits/s speed=0.0101x elapsed=0:05:11.77    \nframe=  161 fps=0.5 q=44.7 size=     256KiB time=00:00:03.18 bitrate= 659.6kbits/s speed=0.0102x elapsed=0:05:12.28    \nframe=  161 fps=0.5 q=44.7 size=     256KiB time=00:00:03.18 bitrate= 659.6kbits/s speed=0.0102x elapsed=0:05:12.81    \nframe=  161 fps=0.5 q=44.7 size=     256KiB time=00:00:03.18 bitrate= 659.6kbits/s speed=0.0101x elapsed=0:05:13.36    \nframe=  163 fps=0.5 q=50.9 size=     256KiB time=00:00:03.22 bitrate= 651.4kbits/s speed=0.0103x elapsed=0:05:13.91    \nframe=  163 fps=0.5 q=50.9 size=     256KiB time=00:00:03.22 bitrate= 651.4kbits/s speed=0.0102x elapsed=0:05:14.43    \nframe=  164 fps=0.5 q=50.0 size=     256KiB time=00:00:03.24 bitrate= 647.4kbits/s speed=0.0103x elapsed=0:05:14.96    \nframe=  165 fps=0.5 q=45.1 size=     256KiB time=00:00:03.26 bitrate= 643.4kbits/s speed=0.0103x elapsed=0:05:15.52    \nframe=  165 fps=0.5 q=45.1 size=     256KiB time=00:00:03.26 bitrate= 643.4kbits/s speed=0.0103x elapsed=0:05:16.06    \nframe=  165 fps=0.5 q=45.1 size=     256KiB time=00:00:03.26 bitrate= 643.4kbits/s speed=0.0103x elapsed=0:05:16.59    \nframe=  166 fps=0.5 q=49.3 size=     256KiB time=00:00:03.28 bitrate= 639.5kbits/s speed=0.0103x elapsed=0:05:17.13    \nframe=  167 fps=0.5 q=49.9 size=     256KiB time=00:00:03.30 bitrate= 635.6kbits/s speed=0.0104x elapsed=0:05:17.66    \nframe=  167 fps=0.5 q=49.9 size=     256KiB time=00:00:03.30 bitrate= 635.6kbits/s speed=0.0104x elapsed=0:05:18.19    \nframe=  168 fps=0.5 q=49.6 size=     256KiB time=00:00:03.32 bitrate= 631.8kbits/s speed=0.0104x elapsed=0:05:18.76    \nframe=  168 fps=0.5 q=49.6 size=     256KiB time=00:00:03.32 bitrate= 631.8kbits/s speed=0.0104x elapsed=0:05:19.33    \nframe=  168 fps=0.5 q=49.6 size=     256KiB time=00:00:03.32 bitrate= 631.8kbits/s speed=0.0104x elapsed=0:05:19.86    \nframe=  169 fps=0.5 q=44.8 size=     256KiB time=00:00:03.34 bitrate= 628.0kbits/s speed=0.0104x elapsed=0:05:20.40    \nframe=  169 fps=0.5 q=44.8 size=     256KiB time=00:00:03.34 bitrate= 628.0kbits/s speed=0.0104x elapsed=0:05:20.92    \nframe=  169 fps=0.5 q=44.8 size=     256KiB time=00:00:03.34 bitrate= 628.0kbits/s speed=0.0104x elapsed=0:05:21.46    \nframe=  170 fps=0.5 q=48.3 size=     256KiB time=00:00:03.36 bitrate= 624.3kbits/s speed=0.0104x elapsed=0:05:22.00    \nframe=  170 fps=0.5 q=48.3 size=     256KiB time=00:00:03.36 bitrate= 624.3kbits/s speed=0.0104x elapsed=0:05:22.55    \nframe=  171 fps=0.5 q=49.9 size=     256KiB time=00:00:03.38 bitrate= 620.6kbits/s speed=0.0105x elapsed=0:05:23.10    \nframe=  171 fps=0.5 q=49.9 size=     256KiB time=00:00:03.38 bitrate= 620.6kbits/s speed=0.0104x elapsed=0:05:23.69    \nframe=  171 fps=0.5 q=49.9 size=     256KiB time=00:00:03.38 bitrate= 620.6kbits/s speed=0.0104x elapsed=0:05:24.27    \nframe=  171 fps=0.5 q=49.9 size=     256KiB time=00:00:03.38 bitrate= 620.6kbits/s speed=0.0104x elapsed=0:05:24.88    \nframe=  171 fps=0.5 q=49.9 size=     256KiB time=00:00:03.38 bitrate= 620.6kbits/s speed=0.0104x elapsed=0:05:25.52    \nframe=  171 fps=0.5 q=49.9 size=     256KiB time=00:00:03.38 bitrate= 620.6kbits/s speed=0.0104x elapsed=0:05:26.15    \nframe=  171 fps=0.5 q=49.9 size=     256KiB time=00:00:03.38 bitrate= 620.6kbits/s speed=0.0103x elapsed=0:05:26.78    \nframe=  171 fps=0.5 q=49.9 size=     256KiB time=00:00:03.38 bitrate= 620.6kbits/s speed=0.0103x elapsed=0:05:27.43    \nframe=  171 fps=0.5 q=49.9 size=     256KiB time=00:00:03.38 bitrate= 620.6kbits/s speed=0.0103x elapsed=0:05:28.09    \nframe=  171 fps=0.5 q=49.9 size=     256KiB time=00:00:03.38 bitrate= 620.6kbits/s speed=0.0103x elapsed=0:05:28.73    \nframe=  171 fps=0.5 q=49.9 size=     256KiB time=00:00:03.38 bitrate= 620.6kbits/s speed=0.0103x elapsed=0:05:29.34    \nframe=  171 fps=0.5 q=49.9 size=     256KiB time=00:00:03.38 bitrate= 620.6kbits/s speed=0.0102x elapsed=0:05:29.96    \nframe=  171 fps=0.5 q=49.9 size=     256KiB time=00:00:03.38 bitrate= 620.6kbits/s speed=0.0102x elapsed=0:05:30.57    \nframe=  171 fps=0.5 q=49.9 size=     256KiB time=00:00:03.38 bitrate= 620.6kbits/s speed=0.0102x elapsed=0:05:31.17    \nframe=  171 fps=0.5 q=49.9 size=     256KiB time=00:00:03.38 bitrate= 620.6kbits/s speed=0.0102x elapsed=0:05:31.78    \nframe=  171 fps=0.5 q=49.9 size=     256KiB time=00:00:03.38 bitrate= 620.6kbits/s speed=0.0102x elapsed=0:05:32.35    \nframe=  172 fps=0.5 q=49.8 size=     256KiB time=00:00:03.40 bitrate= 616.9kbits/s speed=0.0102x elapsed=0:05:32.87    \nframe=  173 fps=0.5 q=44.4 size=     256KiB time=00:00:03.42 bitrate= 613.3kbits/s speed=0.0103x elapsed=0:05:33.39    \nframe=  174 fps=0.5 q=48.4 size=     256KiB time=00:00:03.44 bitrate= 609.7kbits/s speed=0.0103x elapsed=0:05:33.95    \nframe=  175 fps=0.5 q=49.7 size=     256KiB time=00:00:03.46 bitrate= 606.2kbits/s speed=0.0103x elapsed=0:05:34.51    \nframe=  175 fps=0.5 q=49.7 size=     256KiB time=00:00:03.46 bitrate= 606.2kbits/s speed=0.0103x elapsed=0:05:35.09    \nframe=  175 fps=0.5 q=49.7 size=     256KiB time=00:00:03.46 bitrate= 606.2kbits/s speed=0.0103x elapsed=0:05:35.66    \nframe=  175 fps=0.5 q=49.7 size=     256KiB time=00:00:03.46 bitrate= 606.2kbits/s speed=0.0103x elapsed=0:05:36.23    \nframe=  176 fps=0.5 q=49.9 size=     256KiB time=00:00:03.48 bitrate= 602.7kbits/s speed=0.0103x elapsed=0:05:36.76    \nframe=  176 fps=0.5 q=49.9 size=     256KiB time=00:00:03.48 bitrate= 602.7kbits/s speed=0.0103x elapsed=0:05:37.28    \nframe=  177 fps=0.5 q=44.6 size=     256KiB time=00:00:03.50 bitrate= 599.3kbits/s speed=0.0104x elapsed=0:05:37.80    \nframe=  177 fps=0.5 q=44.6 size=     256KiB time=00:00:03.50 bitrate= 599.3kbits/s speed=0.0103x elapsed=0:05:38.34    \nframe=  178 fps=0.5 q=48.1 size=     256KiB time=00:00:03.52 bitrate= 595.9kbits/s speed=0.0104x elapsed=0:05:38.88    \nframe=  178 fps=0.5 q=48.1 size=     256KiB time=00:00:03.52 bitrate= 595.9kbits/s speed=0.0104x elapsed=0:05:39.40    \nframe=  178 fps=0.5 q=48.1 size=     256KiB time=00:00:03.52 bitrate= 595.9kbits/s speed=0.0104x elapsed=0:05:39.94    \nframe=  179 fps=0.5 q=50.0 size=     256KiB time=00:00:03.54 bitrate= 592.5kbits/s speed=0.0104x elapsed=0:05:40.46    \nframe=  180 fps=0.5 q=49.8 size=     256KiB time=00:00:03.56 bitrate= 589.2kbits/s speed=0.0104x elapsed=0:05:40.99    \nframe=  181 fps=0.5 q=44.4 size=     256KiB time=00:00:03.58 bitrate= 585.9kbits/s speed=0.0105x elapsed=0:05:41.52    \nframe=  182 fps=0.5 q=48.2 size=     256KiB time=00:00:03.60 bitrate= 582.6kbits/s speed=0.0105x elapsed=0:05:42.03    \nframe=  183 fps=0.5 q=50.7 size=     256KiB time=00:00:03.62 bitrate= 579.4kbits/s speed=0.0106x elapsed=0:05:42.55    \nframe=  184 fps=0.5 q=49.8 size=     256KiB time=00:00:03.64 bitrate= 576.2kbits/s speed=0.0106x elapsed=0:05:43.11    \nframe=  185 fps=0.5 q=44.4 size=     256KiB time=00:00:03.66 bitrate= 573.1kbits/s speed=0.0106x elapsed=0:05:43.67    \nframe=  185 fps=0.5 q=44.4 size=     256KiB time=00:00:03.66 bitrate= 573.1kbits/s speed=0.0106x elapsed=0:05:44.19    \nframe=  185 fps=0.5 q=44.4 size=     256KiB time=00:00:03.66 bitrate= 573.1kbits/s speed=0.0106x elapsed=0:05:44.72    \nframe=  185 fps=0.5 q=44.4 size=     256KiB time=00:00:03.66 bitrate= 573.1kbits/s speed=0.0106x elapsed=0:05:45.25    \nframe=  186 fps=0.5 q=48.0 size=     256KiB time=00:00:03.68 bitrate= 570.0kbits/s speed=0.0106x elapsed=0:05:45.77    \nframe=  186 fps=0.5 q=48.0 size=     256KiB time=00:00:03.68 bitrate= 570.0kbits/s speed=0.0106x elapsed=0:05:46.30    \nframe=  187 fps=0.5 q=49.7 size=     256KiB time=00:00:03.70 bitrate= 566.9kbits/s speed=0.0107x elapsed=0:05:46.86    \nframe=  187 fps=0.5 q=49.7 size=     256KiB time=00:00:03.70 bitrate= 566.9kbits/s speed=0.0107x elapsed=0:05:47.37    \nframe=  187 fps=0.5 q=49.7 size=     256KiB time=00:00:03.70 bitrate= 566.9kbits/s speed=0.0106x elapsed=0:05:47.89    \nframe=  188 fps=0.5 q=49.9 size=     256KiB time=00:00:03.72 bitrate= 563.8kbits/s speed=0.0107x elapsed=0:05:48.41    \nframe=  188 fps=0.5 q=49.9 size=     256KiB time=00:00:03.72 bitrate= 563.8kbits/s speed=0.0107x elapsed=0:05:48.94    \nframe=  189 fps=0.5 q=44.6 size=     256KiB time=00:00:03.74 bitrate= 560.8kbits/s speed=0.0107x elapsed=0:05:49.45    \nframe=  190 fps=0.5 q=48.1 size=     256KiB time=00:00:03.76 bitrate= 557.8kbits/s speed=0.0107x elapsed=0:05:49.98    \nframe=  190 fps=0.5 q=48.1 size=     256KiB time=00:00:03.76 bitrate= 557.8kbits/s speed=0.0107x elapsed=0:05:50.52    \nframe=  190 fps=0.5 q=48.1 size=     256KiB time=00:00:03.76 bitrate= 557.8kbits/s speed=0.0107x elapsed=0:05:51.05    \nframe=  191 fps=0.5 q=49.9 size=     256KiB time=00:00:03.78 bitrate= 554.9kbits/s speed=0.0108x elapsed=0:05:51.57    \nframe=  192 fps=0.5 q=49.5 size=     256KiB time=00:00:03.80 bitrate= 552.0kbits/s speed=0.0108x elapsed=0:05:52.10    \nframe=  192 fps=0.5 q=49.5 size=     256KiB time=00:00:03.80 bitrate= 552.0kbits/s speed=0.0108x elapsed=0:05:52.64    \nframe=  193 fps=0.5 q=44.4 size=     256KiB time=00:00:03.80 bitrate= 552.0kbits/s speed=0.0108x elapsed=0:05:53.18    \nframe=  194 fps=0.5 q=48.0 size=     256KiB time=00:00:03.84 bitrate= 546.2kbits/s speed=0.0109x elapsed=0:05:53.71    \nframe=  195 fps=0.6 q=49.8 size=     256KiB time=00:00:03.86 bitrate= 543.4kbits/s speed=0.0109x elapsed=0:05:54.23    \nframe=  196 fps=0.6 q=48.8 size=     256KiB time=00:00:03.88 bitrate= 540.6kbits/s speed=0.0109x elapsed=0:05:54.78    \nframe=  196 fps=0.6 q=48.8 size=     256KiB time=00:00:03.88 bitrate= 540.6kbits/s speed=0.0109x elapsed=0:05:55.31    \nframe=  196 fps=0.6 q=48.8 size=     256KiB time=00:00:03.88 bitrate= 540.6kbits/s speed=0.0109x elapsed=0:05:55.82    \nframe=  198 fps=0.6 q=48.1 size=     256KiB time=00:00:03.92 bitrate= 535.1kbits/s speed=0.011x elapsed=0:05:56.37    \nframe=  198 fps=0.6 q=48.1 size=     256KiB time=00:00:03.92 bitrate= 535.1kbits/s speed=0.011x elapsed=0:05:56.90    \nframe=  198 fps=0.6 q=48.1 size=     256KiB time=00:00:03.92 bitrate= 535.1kbits/s speed=0.011x elapsed=0:05:57.40    \nframe=  199 fps=0.6 q=49.9 size=     256KiB time=00:00:03.94 bitrate= 532.4kbits/s speed=0.011x elapsed=0:05:57.93    \nframe=  200 fps=0.6 q=49.6 size=     256KiB time=00:00:03.96 bitrate= 529.7kbits/s speed=0.011x elapsed=0:05:58.45    \nframe=  200 fps=0.6 q=49.6 size=     256KiB time=00:00:03.96 bitrate= 529.7kbits/s speed=0.011x elapsed=0:05:58.97    \nframe=  201 fps=0.6 q=44.2 size=     256KiB time=00:00:03.98 bitrate= 527.0kbits/s speed=0.0111x elapsed=0:05:59.51    \nframe=  201 fps=0.6 q=44.2 size=     256KiB time=00:00:03.98 bitrate= 527.0kbits/s speed=0.0111x elapsed=0:06:00.06    \nframe=  201 fps=0.6 q=44.2 size=     256KiB time=00:00:03.98 bitrate= 527.0kbits/s speed=0.011x elapsed=0:06:00.59    \nframe=  202 fps=0.6 q=47.9 size=     256KiB time=00:00:04.00 bitrate= 524.4kbits/s speed=0.0111x elapsed=0:06:01.14    \nframe=  203 fps=0.6 q=49.7 size=     256KiB time=00:00:04.02 bitrate= 521.8kbits/s speed=0.0111x elapsed=0:06:01.67    \nframe=  204 fps=0.6 q=50.1 size=     256KiB time=00:00:04.04 bitrate= 519.2kbits/s speed=0.0112x elapsed=0:06:02.20    \nframe=  204 fps=0.6 q=50.1 size=     256KiB time=00:00:04.04 bitrate= 519.2kbits/s speed=0.0111x elapsed=0:06:02.73    \nframe=  204 fps=0.6 q=50.1 size=     256KiB time=00:00:04.04 bitrate= 519.2kbits/s speed=0.0111x elapsed=0:06:03.26    \nframe=  204 fps=0.6 q=50.1 size=     256KiB time=00:00:04.04 bitrate= 519.2kbits/s speed=0.0111x elapsed=0:06:03.79    \nframe=  205 fps=0.6 q=44.3 size=     256KiB time=00:00:04.06 bitrate= 516.6kbits/s speed=0.0111x elapsed=0:06:04.31    \nframe=  206 fps=0.6 q=48.2 size=     256KiB time=00:00:04.08 bitrate= 514.1kbits/s speed=0.0112x elapsed=0:06:04.82    \nframe=  207 fps=0.6 q=50.1 size=     256KiB time=00:00:04.10 bitrate= 511.6kbits/s speed=0.0112x elapsed=0:06:05.34    \nframe=  207 fps=0.6 q=50.1 size=     256KiB time=00:00:04.10 bitrate= 511.6kbits/s speed=0.0112x elapsed=0:06:05.86    \nframe=  208 fps=0.6 q=49.7 size=     256KiB time=00:00:04.12 bitrate= 509.1kbits/s speed=0.0112x elapsed=0:06:06.39    \nframe=  208 fps=0.6 q=49.7 size=     256KiB time=00:00:04.12 bitrate= 509.1kbits/s speed=0.0112x elapsed=0:06:06.93    \nframe=  208 fps=0.6 q=49.7 size=     256KiB time=00:00:04.12 bitrate= 509.1kbits/s speed=0.0112x elapsed=0:06:07.47    \nframe=  210 fps=0.6 q=48.0 size=     256KiB time=00:00:04.14 bitrate= 506.6kbits/s speed=0.0113x elapsed=0:06:07.98    \nframe=  211 fps=0.6 q=50.0 size=     256KiB time=00:00:04.18 bitrate= 501.8kbits/s speed=0.0113x elapsed=0:06:08.52    \nframe=  211 fps=0.6 q=50.0 size=     256KiB time=00:00:04.18 bitrate= 501.8kbits/s speed=0.0113x elapsed=0:06:09.04    \nframe=  211 fps=0.6 q=50.0 size=     256KiB time=00:00:04.18 bitrate= 501.8kbits/s speed=0.0113x elapsed=0:06:09.58    \nframe=  212 fps=0.6 q=48.9 size=     256KiB time=00:00:04.20 bitrate= 499.4kbits/s speed=0.0113x elapsed=0:06:10.11    \nframe=  212 fps=0.6 q=48.9 size=     256KiB time=00:00:04.20 bitrate= 499.4kbits/s speed=0.0113x elapsed=0:06:10.63    \nframe=  212 fps=0.6 q=48.9 size=     256KiB time=00:00:04.20 bitrate= 499.4kbits/s speed=0.0113x elapsed=0:06:11.19    \nframe=  213 fps=0.6 q=44.7 size=     256KiB time=00:00:04.22 bitrate= 497.0kbits/s speed=0.0114x elapsed=0:06:11.70    \nframe=  213 fps=0.6 q=44.7 size=     256KiB time=00:00:04.22 bitrate= 497.0kbits/s speed=0.0113x elapsed=0:06:12.23    \nframe=  213 fps=0.6 q=44.7 size=     256KiB time=00:00:04.22 bitrate= 497.0kbits/s speed=0.0113x elapsed=0:06:12.76    \nframe=  213 fps=0.6 q=44.7 size=     256KiB time=00:00:04.22 bitrate= 497.0kbits/s speed=0.0113x elapsed=0:06:13.31    \nframe=  213 fps=0.6 q=44.7 size=     256KiB time=00:00:04.22 bitrate= 497.0kbits/s speed=0.0113x elapsed=0:06:13.84    \nframe=  214 fps=0.6 q=48.1 size=     256KiB time=00:00:04.24 bitrate= 494.7kbits/s speed=0.0113x elapsed=0:06:14.36    \nframe=  214 fps=0.6 q=48.1 size=     256KiB time=00:00:04.24 bitrate= 494.7kbits/s speed=0.0113x elapsed=0:06:14.87    \nframe=  214 fps=0.6 q=48.1 size=     256KiB time=00:00:04.24 bitrate= 494.7kbits/s speed=0.0113x elapsed=0:06:15.40    \nframe=  215 fps=0.6 q=49.8 size=     256KiB time=00:00:04.26 bitrate= 492.4kbits/s speed=0.0113x elapsed=0:06:15.93    \nframe=  216 fps=0.6 q=49.8 size=     256KiB time=00:00:04.28 bitrate= 490.1kbits/s speed=0.0114x elapsed=0:06:16.46    \nframe=  216 fps=0.6 q=49.8 size=     256KiB time=00:00:04.28 bitrate= 490.1kbits/s speed=0.0114x elapsed=0:06:16.97    \nframe=  216 fps=0.6 q=49.8 size=     256KiB time=00:00:04.28 bitrate= 490.1kbits/s speed=0.0113x elapsed=0:06:17.54    \nframe=  217 fps=0.6 q=44.4 size=     256KiB time=00:00:04.30 bitrate= 487.8kbits/s speed=0.0114x elapsed=0:06:18.07    \nframe=  218 fps=0.6 q=48.1 size=     512KiB time=00:00:04.32 bitrate= 971.0kbits/s speed=0.0114x elapsed=0:06:18.59    \nframe=  218 fps=0.6 q=48.1 size=     512KiB time=00:00:04.32 bitrate= 971.0kbits/s speed=0.0114x elapsed=0:06:19.12    \nframe=  219 fps=0.6 q=49.7 size=     512KiB time=00:00:04.34 bitrate= 966.5kbits/s speed=0.0114x elapsed=0:06:19.64    \nframe=  219 fps=0.6 q=49.7 size=     512KiB time=00:00:04.34 bitrate= 966.5kbits/s speed=0.0114x elapsed=0:06:20.15    \nframe=  220 fps=0.6 q=49.8 size=     512KiB time=00:00:04.36 bitrate= 962.1kbits/s speed=0.0115x elapsed=0:06:20.69    \nframe=  221 fps=0.6 q=44.7 size=     512KiB time=00:00:04.38 bitrate= 957.7kbits/s speed=0.0115x elapsed=0:06:21.20    \nframe=  221 fps=0.6 q=44.7 size=     512KiB time=00:00:04.38 bitrate= 957.7kbits/s speed=0.0115x elapsed=0:06:21.72    \nframe=  222 fps=0.6 q=48.1 size=     512KiB time=00:00:04.40 bitrate= 953.3kbits/s speed=0.0115x elapsed=0:06:22.26    \nframe=  223 fps=0.6 q=49.8 size=     512KiB time=00:00:04.42 bitrate= 949.0kbits/s speed=0.0115x elapsed=0:06:22.78    \nframe=  223 fps=0.6 q=49.8 size=     512KiB time=00:00:04.42 bitrate= 949.0kbits/s speed=0.0115x elapsed=0:06:23.30    \nframe=  224 fps=0.6 q=49.8 size=     512KiB time=00:00:04.44 bitrate= 944.7kbits/s speed=0.0116x elapsed=0:06:23.84    \nframe=  225 fps=0.6 q=44.3 size=     512KiB time=00:00:04.46 bitrate= 940.5kbits/s speed=0.0116x elapsed=0:06:24.38    \nframe=  225 fps=0.6 q=44.3 size=     512KiB time=00:00:04.46 bitrate= 940.5kbits/s speed=0.0116x elapsed=0:06:24.90    \nframe=  225 fps=0.6 q=44.3 size=     512KiB time=00:00:04.46 bitrate= 940.5kbits/s speed=0.0116x elapsed=0:06:25.44    \nframe=  225 fps=0.6 q=44.3 size=     512KiB time=00:00:04.46 bitrate= 940.5kbits/s speed=0.0116x elapsed=0:06:25.97    \nframe=  225 fps=0.6 q=44.3 size=     512KiB time=00:00:04.46 bitrate= 940.5kbits/s speed=0.0115x elapsed=0:06:26.50    \nframe=  227 fps=0.6 q=50.7 size=     512KiB time=00:00:04.50 bitrate= 932.1kbits/s speed=0.0116x elapsed=0:06:27.02    \nframe=  227 fps=0.6 q=50.7 size=     512KiB time=00:00:04.50 bitrate= 932.1kbits/s speed=0.0116x elapsed=0:06:27.55    \nframe=  228 fps=0.6 q=49.7 size=     512KiB time=00:00:04.52 bitrate= 928.0kbits/s speed=0.0116x elapsed=0:06:28.06    \nframe=  229 fps=0.6 q=44.4 size=     512KiB time=00:00:04.54 bitrate= 923.9kbits/s speed=0.0117x elapsed=0:06:28.58    \nframe=  230 fps=0.6 q=48.2 size=     512KiB time=00:00:04.56 bitrate= 919.9kbits/s speed=0.0117x elapsed=0:06:29.09    \nframe=  231 fps=0.6 q=49.7 size=     512KiB time=00:00:04.58 bitrate= 915.9kbits/s speed=0.0118x elapsed=0:06:29.62    \nframe=  232 fps=0.6 q=49.6 size=     512KiB time=00:00:04.60 bitrate= 911.9kbits/s speed=0.0118x elapsed=0:06:30.17    \nframe=  232 fps=0.6 q=49.6 size=     512KiB time=00:00:04.60 bitrate= 911.9kbits/s speed=0.0118x elapsed=0:06:30.70    \nframe=  233 fps=0.6 q=44.7 size=     512KiB time=00:00:04.62 bitrate= 907.9kbits/s speed=0.0118x elapsed=0:06:31.23    \nframe=  233 fps=0.6 q=44.7 size=     512KiB time=00:00:04.62 bitrate= 907.9kbits/s speed=0.0118x elapsed=0:06:31.78    \nframe=  234 fps=0.6 q=48.1 size=     512KiB time=00:00:04.64 bitrate= 904.0kbits/s speed=0.0118x elapsed=0:06:32.29    \nframe=  234 fps=0.6 q=48.1 size=     512KiB time=00:00:04.64 bitrate= 904.0kbits/s speed=0.0118x elapsed=0:06:32.82    \nframe=  235 fps=0.6 q=49.8 size=     512KiB time=00:00:04.66 bitrate= 900.1kbits/s speed=0.0118x elapsed=0:06:33.35    \nframe=  235 fps=0.6 q=49.8 size=     512KiB time=00:00:04.66 bitrate= 900.1kbits/s speed=0.0118x elapsed=0:06:33.87    \nframe=  237 fps=0.6 q=44.5 size=     512KiB time=00:00:04.70 bitrate= 892.5kbits/s speed=0.0119x elapsed=0:06:34.39    \nframe=  237 fps=0.6 q=44.5 size=     512KiB time=00:00:04.70 bitrate= 892.5kbits/s speed=0.0119x elapsed=0:06:34.90    \nframe=  238 fps=0.6 q=48.1 size=     512KiB time=00:00:04.72 bitrate= 888.7kbits/s speed=0.0119x elapsed=0:06:35.42    \nframe=  238 fps=0.6 q=48.1 size=     512KiB time=00:00:04.72 bitrate= 888.7kbits/s speed=0.0119x elapsed=0:06:35.95    \nframe=  239 fps=0.6 q=48.7 size=     512KiB time=00:00:04.74 bitrate= 884.9kbits/s speed=0.012x elapsed=0:06:36.46    \nframe=  240 fps=0.6 q=47.8 size=     512KiB time=00:00:04.76 bitrate= 881.2kbits/s speed=0.012x elapsed=0:06:36.99    \nframe=  241 fps=0.6 q=44.6 size=     512KiB time=00:00:04.78 bitrate= 877.5kbits/s speed=0.012x elapsed=0:06:37.50    \nframe=  242 fps=0.6 q=47.5 size=     512KiB time=00:00:04.80 bitrate= 873.9kbits/s speed=0.0121x elapsed=0:06:38.02    \nframe=  242 fps=0.6 q=47.5 size=     512KiB time=00:00:04.80 bitrate= 873.9kbits/s speed=0.012x elapsed=0:06:38.56    \nframe=  242 fps=0.6 q=47.5 size=     512KiB time=00:00:04.80 bitrate= 873.9kbits/s speed=0.012x elapsed=0:06:39.09    \nframe=  243 fps=0.6 q=47.7 size=     512KiB time=00:00:04.82 bitrate= 870.3kbits/s speed=0.0121x elapsed=0:06:39.62    \nframe=  243 fps=0.6 q=47.7 size=     512KiB time=00:00:04.82 bitrate= 870.3kbits/s speed=0.012x elapsed=0:06:40.14    \nframe=  244 fps=0.6 q=47.0 size=     512KiB time=00:00:04.84 bitrate= 866.7kbits/s speed=0.0121x elapsed=0:06:40.66    \nframe=  244 fps=0.6 q=47.0 size=     512KiB time=00:00:04.84 bitrate= 866.7kbits/s speed=0.0121x elapsed=0:06:41.19    \nframe=  245 fps=0.6 q=46.6 size=     512KiB time=00:00:04.86 bitrate= 863.1kbits/s speed=0.0121x elapsed=0:06:41.74    \nframe=  246 fps=0.6 q=45.0 size=     512KiB time=00:00:04.88 bitrate= 859.6kbits/s speed=0.0121x elapsed=0:06:42.26    \nframe=  246 fps=0.6 q=45.0 size=     512KiB time=00:00:04.88 bitrate= 859.6kbits/s speed=0.0121x elapsed=0:06:42.78    \nframe=  247 fps=0.6 q=45.6 size=     512KiB time=00:00:04.90 bitrate= 856.1kbits/s speed=0.0121x elapsed=0:06:43.31    \nframe=  247 fps=0.6 q=45.6 size=     512KiB time=00:00:04.90 bitrate= 856.1kbits/s speed=0.0121x elapsed=0:06:43.86    \nframe=  249 fps=0.6 q=44.3 size=     512KiB time=00:00:04.94 bitrate= 849.1kbits/s speed=0.0122x elapsed=0:06:44.40    \nframe=  249 fps=0.6 q=44.3 size=     512KiB time=00:00:04.94 bitrate= 849.1kbits/s speed=0.0122x elapsed=0:06:44.95    \nframe=  249 fps=0.6 q=44.3 size=     512KiB time=00:00:04.94 bitrate= 849.1kbits/s speed=0.0122x elapsed=0:06:45.48    \nframe=  249 fps=0.6 q=44.3 size=     512KiB time=00:00:04.94 bitrate= 849.1kbits/s speed=0.0122x elapsed=0:06:46.00    \n[mp4 @ 000001c142c7aa40] Starting second pass: moving the moov atom to the beginning of the file\n[out#0/mp4 @ 000001c142d07d80] video:602KiB audio:0KiB subtitle:0KiB other streams:0KiB global headers:2KiB muxing overhead: 1.062678%\nframe=  250 fps=0.6 q=47.6 Lsize=     608KiB time=00:00:04.96 bitrate=1004.4kbits/s speed=0.0122x elapsed=0:06:46.50    \nx265 [info]: frame I:      1, Avg QP:49.96  kb/s: 2050.40 \nx265 [info]: frame P:     60, Avg QP:45.77  kb/s: 2739.71 \nx265 [info]: frame B:    189, Avg QP:49.78  kb/s: 421.37  \nx265 [info]: Weighted P-Frames: Y:0.0% UV:0.0%\n\nencoded 250 frames in 405.83s (0.62 fps), 984.29 kb/s, Avg QP:48.81\n",
  "seconds": 407.09431195259094,
  "probe_out": {}
}